<svg width="33" height="31" viewBox="0 0 33 31" fill="none" xmlns="http://www.w3.org/2000/svg">
<path fill-rule="evenodd" clip-rule="evenodd" d="M14.2235 0.067431C14.2235 0.104788 14.116 0.450624 13.9846 0.835955L13.7458 1.53658H12.8844H12.0229L12.6944 2.04501C13.0638 2.32469 13.366 2.57736 13.366 2.60663C13.366 2.65328 12.9945 3.76249 12.865 4.10245C12.834 4.18385 13.0598 4.05868 13.498 3.7516C13.8726 3.48897 14.2063 3.27411 14.2396 3.27411C14.2728 3.27411 14.572 3.48556 14.9043 3.74398C15.2366 4.00241 15.5181 4.18471 15.5298 4.14916C15.5416 4.11354 15.4602 3.78602 15.3491 3.42127C15.238 3.05652 15.148 2.7163 15.1491 2.66524C15.1503 2.61419 15.4521 2.36191 15.8199 2.10462L16.4887 1.63682L15.6386 1.60341L14.7885 1.57L14.5555 0.785233C14.4273 0.35359 14.3003 0.000202237 14.273 1.75294e-06C14.2458 -0.00026556 14.2235 0.0300741 14.2235 0.067431ZM19.3554 0.782292L19.1226 1.57L18.2727 1.60341L17.4229 1.63682L18.0962 2.10462C18.4665 2.36191 18.7702 2.61753 18.771 2.67266C18.7719 2.72779 18.6728 3.08867 18.5508 3.4746C18.4288 3.86053 18.3398 4.18826 18.353 4.20289C18.3662 4.21753 18.6588 4.01103 19.0034 3.74405C19.3639 3.46471 19.6696 3.27411 19.7236 3.2951C19.7753 3.31515 20.1014 3.53073 20.4484 3.77419L21.0794 4.21672L20.8179 3.44239C20.6741 3.01649 20.5564 2.64272 20.5564 2.61171C20.5564 2.58064 20.8458 2.33357 21.1995 2.06265L21.8427 1.57L21.0207 1.55115C20.4647 1.53832 20.1822 1.50591 20.1477 1.45091C20.1197 1.40613 20.0035 1.08382 19.8895 0.734643C19.7756 0.385466 19.6612 0.0761186 19.6353 0.047182C19.6095 0.0182454 19.4835 0.349045 19.3554 0.782292ZM8.94066 2.90723L8.70852 3.57484L8.03573 3.55031C7.66572 3.53675 7.363 3.54296 7.363 3.56401C7.363 3.585 7.60048 3.78542 7.89073 4.00922C8.18099 4.23303 8.41847 4.4275 8.41847 4.44127C8.41847 4.4551 8.3275 4.72749 8.21635 5.0466C8.10513 5.3657 8.02702 5.63983 8.04272 5.65574C8.05849 5.67164 8.3087 5.51901 8.59876 5.31658L9.12623 4.94849L9.64578 5.34271C9.93155 5.5595 10.1749 5.72718 10.1866 5.71528C10.1984 5.70345 10.1319 5.44095 10.0389 5.132C9.94586 4.82312 9.86974 4.53643 9.86974 4.49486C9.86974 4.45336 10.1146 4.24439 10.414 4.03054L10.9582 3.64167L10.2692 3.60825L9.58028 3.57484L9.37657 2.90723L9.17286 2.23961L8.94066 2.90723ZM24.5421 2.91411L24.345 3.57484L23.6546 3.60825L22.9642 3.64167L23.5084 4.03054C23.8077 4.24439 24.0526 4.44207 24.0526 4.46987C24.0526 4.4976 23.9781 4.77267 23.8869 5.08108C23.7958 5.38949 23.729 5.66509 23.7385 5.69349C23.748 5.7219 23.9878 5.56398 24.2715 5.34258L24.7872 4.94007L25.3161 5.31545C25.6069 5.52195 25.8569 5.67872 25.8716 5.66389C25.8862 5.64905 25.8063 5.35915 25.6939 5.01966C25.5815 4.68018 25.5002 4.39382 25.5132 4.38333C25.5262 4.37277 25.767 4.19039 26.0481 3.97808C26.3293 3.76577 26.5593 3.57711 26.5593 3.5588C26.5593 3.54049 26.2559 3.53661 25.885 3.55018L25.2108 3.57484L24.9958 2.97339C24.8776 2.64259 24.7715 2.34527 24.76 2.31266C24.7486 2.28005 24.6505 2.5507 24.5421 2.91411ZM4.77037 6.46516C4.75038 6.5662 4.67182 6.79589 4.59576 6.97546L4.45749 7.30198L3.96419 7.25667C3.69293 7.23181 3.47096 7.23622 3.47096 7.26663C3.47096 7.29697 3.55262 7.37289 3.65236 7.43524C3.75211 7.49765 3.93523 7.63525 4.05918 7.74111L4.28466 7.93351L4.11011 8.41059C4.01406 8.67296 3.95139 8.88768 3.97072 8.88768C3.99011 8.88768 4.18076 8.76739 4.39449 8.62037C4.60822 8.47335 4.80177 8.35305 4.82466 8.35305C4.84755 8.35305 5.04215 8.49012 5.25707 8.65766C5.47199 8.82526 5.64786 8.93366 5.64786 8.89864C5.64786 8.86362 5.58645 8.6336 5.51144 8.38747C5.35688 7.88065 5.32931 7.93965 5.8951 7.56809C6.04927 7.46685 6.1754 7.36273 6.17546 7.33673C6.17553 7.31074 5.9457 7.28066 5.66475 7.2699L5.1539 7.25039L5.02309 6.76588C4.95112 6.49937 4.87301 6.28138 4.84953 6.28138C4.82605 6.28138 4.79042 6.36411 4.77037 6.46516ZM28.8781 6.77751L28.7345 7.27846L28.1921 7.29784L27.6496 7.31722L27.9786 7.53501C28.5988 7.9458 28.5636 7.86648 28.3821 8.44521C28.2943 8.72535 28.2365 8.95451 28.2535 8.95451C28.2706 8.95451 28.4581 8.81918 28.6703 8.65378C28.8824 8.48838 29.0759 8.35305 29.1001 8.35305C29.1243 8.35305 29.3133 8.47335 29.5202 8.62037C29.7271 8.76739 29.9133 8.88768 29.9339 8.88768C29.9545 8.88768 29.8958 8.67289 29.8035 8.41033L29.6355 7.93297L29.8016 7.79216C29.8929 7.71471 30.084 7.55285 30.226 7.43243L30.4844 7.21357L29.9476 7.255L29.4108 7.29637L29.2633 6.83899C29.1821 6.58745 29.0946 6.35803 29.0688 6.3291C29.0429 6.30023 28.9572 6.50205 28.8781 6.77751ZM15.0481 7.35564C13.4075 8.03388 10.5513 9.21407 5.25965 11.4002C3.44879 12.1484 3.17351 12.2811 3.06368 12.4595C2.92132 12.6907 2.94461 12.9816 3.12113 13.1792C3.18189 13.2472 4.4877 13.9504 6.02295 14.7418L8.81427 16.1808V19.2127C8.81427 20.9698 8.84066 22.3149 8.87707 22.4119C9.02451 22.8048 10.558 23.9008 11.8817 24.5594C12.9547 25.0932 13.6853 25.3507 14.7404 25.5671C17.2764 26.0873 20.0332 25.6688 22.3375 24.4137C23.6141 23.7184 24.912 22.7363 25.0379 22.3705C25.0893 22.221 25.1103 21.2365 25.1055 19.1878C25.1017 17.5564 25.123 16.1983 25.1528 16.1697C25.1826 16.1411 26.2089 15.6012 27.4334 14.9698L29.6598 13.8218V15.9208V18.0198L29.4968 18.175C29.1677 18.4882 29.1297 18.9882 29.4078 19.3464C29.5292 19.5027 29.5325 19.5311 29.442 19.6336C29.3459 19.7422 28.7363 22.1846 28.7363 22.4607C28.7363 22.5338 28.8091 22.6673 28.8982 22.7575C29.0571 22.9185 29.0805 22.9216 30.1545 22.9216C31.2286 22.9216 31.252 22.9185 31.4109 22.7575C31.61 22.5558 31.6101 22.5437 31.4122 21.701C31.3239 21.3248 31.1892 20.7469 31.113 20.4169C31.0368 20.0867 30.9296 19.7474 30.8748 19.6627C30.7838 19.5221 30.7869 19.4937 30.9101 19.335C31.0078 19.2093 31.0451 19.0627 31.0451 18.805C31.0451 18.5045 31.0142 18.413 30.8472 18.2204L30.6493 17.9921V15.6725C30.6493 13.454 30.655 13.3455 30.7812 13.1829C30.9463 12.9703 30.9547 12.561 30.7977 12.3728C30.6785 12.2298 17.1583 6.61378 16.9421 6.61739C16.88 6.61846 16.0277 6.95066 15.0481 7.35564ZM11.0901 10.3601C7.89733 11.6809 5.24216 12.7784 5.18972 12.7989C5.08431 12.8403 16.7969 18.9119 16.9821 18.9119C17.0451 18.9119 17.1553 18.8715 17.2268 18.822C17.2984 18.7726 18.9303 17.9262 20.8532 16.9411C22.7761 15.956 24.3791 15.1287 24.4154 15.1026C24.4517 15.0766 25.4387 14.5651 26.6088 13.9659C27.7789 13.3667 28.7357 12.8586 28.7351 12.8368C28.7345 12.815 28.0592 12.521 27.2344 12.1834C25.6114 11.5192 24.0258 10.8659 19.7381 9.09425C18.2178 8.46606 16.9562 7.95355 16.9345 7.95536C16.9129 7.95716 14.2829 9.03931 11.0901 10.3601ZM10.1366 19.3964L10.1396 21.8858L10.5489 22.1957C12.0415 23.326 13.6436 24.0364 15.378 24.337C16.3863 24.5118 17.994 24.4787 18.9632 24.2631C20.5668 23.9065 22.2749 23.0811 23.5084 22.0668L23.7887 21.8362V19.3717C23.7887 17.5864 23.7682 16.9071 23.7143 16.9071C23.6734 16.9071 23.4879 16.9933 23.302 17.0987C22.3685 17.6282 17.0581 20.3153 16.9451 20.3153C16.8735 20.3153 16.6548 20.2299 16.4592 20.1254C15.6172 19.6759 10.2091 16.9071 10.1732 16.9071C10.1514 16.9071 10.135 18.0272 10.1366 19.3964ZM3.62769 22.5854C3.30564 23.0651 2.44128 24.3496 1.70687 25.4399C0.972461 26.5303 0.37876 27.4291 0.387534 27.4373C0.396307 27.4455 0.819088 27.3804 1.32703 27.2926C3.22404 26.9648 4.52075 26.8471 6.27455 26.8433C8.11918 26.8393 9.05452 26.9359 10.4043 27.2698C12.5557 27.802 14.3721 28.8129 15.7408 30.2397L16.1696 30.6867L15.5429 30.2718C13.7729 29.1002 11.3631 28.242 8.9462 27.9227C8.02959 27.8016 5.90916 27.8194 4.98437 27.9559C4.03972 28.0954 2.8254 28.3927 2.08565 28.6657C1.49281 28.8845 -0.040921 29.6109 0.000836004 29.6531C0.0143592 29.6668 0.288583 29.6322 0.610238 29.5763C2.63008 29.2248 6.02137 29.1303 8.31952 29.3616C10.9005 29.6213 13.5546 30.1402 16.0211 30.8671C16.266 30.9393 16.4664 30.9819 16.4664 30.9617C16.4664 30.9415 16.3571 30.7407 16.2235 30.5153C15.4306 29.178 14.1763 27.9301 12.7663 27.0756C11.4134 26.2556 9.83669 25.7143 7.92642 25.4139C6.98745 25.2663 4.53032 25.2649 3.60289 25.4116C3.25821 25.4661 2.96763 25.5034 2.95721 25.4944C2.94672 25.4855 3.23453 24.6407 3.59682 23.6171C3.95904 22.5935 4.246 21.7464 4.23432 21.7347C4.22271 21.7229 3.94974 22.1058 3.62769 22.5854ZM26.0976 25.3025C22.83 25.6123 20.2841 26.6678 18.3948 28.4963C17.7501 29.1201 17.1628 29.8585 16.7668 30.5429C16.4987 31.0065 16.4895 31.0397 16.6478 30.9749C17.0562 30.8077 19.4591 30.2015 20.7213 29.9472C23.2063 29.4464 25.2002 29.25 27.8127 29.2488C29.8428 29.2479 30.9396 29.3265 32.3886 29.5769C32.7102 29.6325 32.9848 29.6665 32.9988 29.6523C33.0529 29.5975 31.3057 28.7961 30.6461 28.5733C29.8645 28.3092 28.7486 28.0543 27.8127 27.9258C27.0181 27.8168 24.8725 27.8153 24.0526 27.9232C21.6551 28.2386 19.214 29.1047 17.5219 30.2401C17.2135 30.447 16.9315 30.6334 16.8952 30.6543C16.7391 30.7442 17.6589 29.8317 18.0496 29.509C20.9138 27.1439 24.7589 26.3712 30.1875 27.0698C31.102 27.1875 32.0316 27.3366 32.4964 27.44L32.6613 27.4768L32.4964 27.2968C31.7341 26.4652 30.1514 25.6996 28.6373 25.4304C28.0305 25.3225 26.6308 25.252 26.0976 25.3025Z" fill="#009DE0"/>
</svg>
