<svg width="25" height="29" viewBox="0 0 25 29" fill="none" xmlns="http://www.w3.org/2000/svg">
<path fill-rule="evenodd" clip-rule="evenodd" d="M5.18661 0.03501C4.50713 0.2421 4.16199 0.750983 4.15982 1.54897L4.15856 2.0103L2.91591 2.03529C1.51072 2.06352 1.27591 2.11668 0.782389 2.51788C0.298243 2.91143 0.0490277 3.37956 0.00497801 3.97805C-0.0683238 4.97377 0.678064 7.13138 1.5734 8.51204C2.46119 9.88096 3.88838 11.2594 5.1673 11.9831L5.54318 12.1959L5.90295 12.9327C6.59752 14.355 7.27717 15.3169 8.23318 16.2303C8.84936 16.819 9.56741 17.33 10.0938 17.5544L10.4016 17.6856L10.3685 18.2279C10.3208 19.0117 10.096 19.5253 9.54507 20.1095C9.20564 20.4695 8.83319 20.6995 8.23141 20.9205C7.46531 21.202 7.50422 21.0898 7.48342 23.0766L7.466 24.7395L6.56929 24.7593C5.55409 24.7817 5.34253 24.8424 4.90049 25.2386C4.32442 25.7549 4.21569 26.1067 4.21569 27.4544C4.21569 28.6232 4.24774 28.7515 4.57889 28.9073C4.75806 28.9917 5.47131 29 12.5286 29C19.5858 29 20.2991 28.9917 20.4782 28.9073C20.8111 28.7506 20.8414 28.6263 20.8414 27.418C20.8414 26.467 20.8276 26.3037 20.7231 26.0269C20.5666 25.6119 20.1281 25.1399 19.7096 24.9361C19.4028 24.7866 19.334 24.7766 18.4871 24.7586L17.5897 24.7395L17.573 23.0766C17.553 21.0885 17.5881 21.1911 16.8364 20.9221C15.4875 20.4394 14.6711 19.3552 14.6711 18.0467V17.6587L14.9424 17.5403C15.9377 17.1062 17.3279 15.8322 18.1456 14.6049C18.4051 14.2154 18.8072 13.514 19.0392 13.0463L19.4609 12.1959L19.8348 11.9831C21.1188 11.2525 22.5401 9.87898 23.4266 8.51204C24.3219 7.13138 25.0683 4.97377 24.995 3.97805C24.951 3.37956 24.7018 2.91143 24.2176 2.51788C23.7241 2.11668 23.4893 2.06352 22.0841 2.03529L20.8414 2.0103L20.8402 1.54897C20.8383 0.854755 20.6001 0.416829 20.0701 0.133114L19.8416 0.0108099L12.5857 0.00106179C8.59495 -0.00426564 5.26534 0.0109799 5.18661 0.03501ZM5.49136 1.43261C5.43731 1.57237 5.51684 5.94336 5.58563 6.61343C5.82753 8.96986 6.44326 11.1151 7.37498 12.8477C8.73144 15.3702 10.5489 16.7563 12.5 16.7563C14.1785 16.7563 15.7631 15.7307 17.0504 13.8111C18.3141 11.9269 19.1478 9.36035 19.4196 6.51759C19.459 6.10506 19.4911 4.83735 19.4939 3.58133L19.4988 1.37101L12.5126 1.35661C6.16268 1.34352 5.52318 1.35043 5.49136 1.43261ZM1.7192 3.49382C1.35166 3.71616 1.28482 3.96042 1.41451 4.60771C1.70538 6.0596 2.41423 7.52284 3.41594 8.73891C3.74103 9.13354 4.78651 10.1467 4.82713 10.1064C4.83776 10.0958 4.7816 9.82208 4.70241 9.49801C4.35064 8.05938 4.15856 6.3372 4.15856 4.6225V3.38296L3.03018 3.38319C2.01252 3.38336 1.88386 3.39424 1.7192 3.49382ZM20.8414 4.6225C20.8414 6.3372 20.6494 8.05938 20.2976 9.49801C20.2184 9.82208 20.1622 10.0958 20.1729 10.1064C20.2135 10.1467 21.259 9.13354 21.5841 8.73891C22.5858 7.52284 23.2946 6.0596 23.5855 4.60771C23.7152 3.96042 23.6483 3.71616 23.2808 3.49382C23.1161 3.39424 22.9875 3.38336 21.9698 3.38319L20.8414 3.38296V4.6225ZM12.3107 3.95204C12.2222 3.9776 12.1105 4.03093 12.0624 4.07054C12.0143 4.11016 11.7557 4.57739 11.4878 5.10883C11.2198 5.64021 10.9767 6.09015 10.9473 6.10863C10.918 6.1271 10.4905 6.19857 9.99728 6.26743C9.50411 6.33623 9.00602 6.41722 8.8905 6.44737C8.58329 6.52757 8.38641 6.78612 8.38641 7.10945C8.38641 7.36902 8.38961 7.37321 9.21336 8.19693L10.0402 9.02381L9.87039 9.98462C9.6478 11.2433 9.64923 11.3346 9.89473 11.5781C10.2136 11.8945 10.39 11.8619 11.5337 11.2749L12.5 10.779L13.4663 11.2749C14.61 11.8619 14.7864 11.8945 15.1053 11.5781C15.3508 11.3346 15.3522 11.2433 15.1296 9.98462L14.9598 9.02381L15.7866 8.19693C16.6104 7.37321 16.6136 7.36902 16.6136 7.10945C16.6136 6.78612 16.4167 6.52757 16.1095 6.44737C15.994 6.41722 15.4959 6.33623 15.0027 6.26743C14.5095 6.19857 14.082 6.1271 14.0527 6.10863C14.0233 6.09015 13.778 5.63579 13.5073 5.09902C13.2129 4.5151 12.9633 4.09089 12.8862 4.04311C12.7043 3.9305 12.4981 3.89786 12.3107 3.95204ZM12.2002 6.69623C11.8838 7.32787 11.8302 7.36494 11.086 7.46514C10.7953 7.5043 10.5575 7.54998 10.5575 7.5667C10.5575 7.58342 10.7503 7.79368 10.986 8.03387C11.4125 8.46868 11.4145 8.47208 11.4124 8.77473C11.4112 8.94197 11.3767 9.25091 11.3356 9.46134C11.2945 9.67178 11.2833 9.8439 11.3106 9.8439C11.3379 9.8439 11.5876 9.72913 11.8655 9.58886C12.1434 9.44859 12.4289 9.33382 12.5 9.33382C12.5711 9.33382 12.8566 9.44859 13.1345 9.58886C13.4124 9.72913 13.6621 9.8439 13.6894 9.8439C13.7167 9.8439 13.7055 9.67178 13.6644 9.46134C13.6233 9.25091 13.5888 8.94197 13.5876 8.77473C13.5855 8.47208 13.5875 8.46868 14.014 8.03387C14.2497 7.79368 14.4425 7.58342 14.4425 7.5667C14.4425 7.54998 14.2047 7.5043 13.914 7.46514C13.1698 7.36494 13.1162 7.32787 12.7998 6.69623C12.6521 6.4013 12.5173 6.16003 12.5 6.16003C12.4827 6.16003 12.3479 6.4013 12.2002 6.69623ZM11.7563 18.2885C11.753 18.9513 11.3658 20.0012 10.8995 20.6121C10.8162 20.7212 10.7294 20.8424 10.7065 20.8813C10.6736 20.9374 11.0596 20.9522 12.5582 20.9522H14.4514L14.2496 20.7183C13.8071 20.2055 13.3893 19.1918 13.3213 18.466L13.2861 18.0901H12.5217H11.7573L11.7563 18.2885ZM8.84348 23.5309V24.7494H12.5286H16.2137V23.5309V22.3124H12.5286H8.84348V23.5309ZM6.05869 26.0924C5.85564 26.132 5.60706 26.4182 5.567 26.6585C5.54724 26.7774 5.53073 27.0469 5.53038 27.2572L5.52975 27.6398H12.5286H19.5274L19.527 27.2006C19.5266 26.6156 19.4522 26.3717 19.2254 26.2112L19.0417 26.0812L12.6143 26.0743C9.07915 26.0705 6.12914 26.0786 6.05869 26.0924Z" fill="#009DE0"/>
</svg>
