<svg width="27" height="27" viewBox="0 0 27 27" fill="none" xmlns="http://www.w3.org/2000/svg">
<path fill-rule="evenodd" clip-rule="evenodd" d="M15.8921 0.217864C15.2516 0.334429 14.4461 0.481852 14.1021 0.545564C13.7581 0.60922 12.9817 0.748444 12.3768 0.854926C10.9004 1.11487 9.83114 1.30495 8.94768 1.46451C7.97308 1.64058 6.57983 1.88955 5.38918 2.10035C4.85541 2.19487 4.09842 2.33116 3.70699 2.40318C3.31555 2.4752 2.86912 2.5516 2.71492 2.57298C2.56072 2.59431 2.29968 2.67586 2.13478 2.75415C1.55826 3.02788 1.07585 3.82389 0.921308 4.75647C0.699776 6.09303 0.886414 7.87707 1.35523 8.90449C1.43662 9.08283 1.53428 9.26189 1.57223 9.30239C1.61023 9.34288 1.65945 9.41956 1.68162 9.47274C1.7169 9.5574 1.67476 9.58792 1.34496 9.7164C0.489372 10.0498 0.428856 10.0924 0.428856 10.3627C0.428856 10.5825 0.63128 10.8127 0.981566 10.9914C1.51094 11.2613 1.79251 11.7728 1.91864 12.6935C1.98364 13.1676 1.99395 13.8136 1.94503 14.3425L1.91695 14.6462L1.42429 14.8528C0.775173 15.125 0.404874 15.3259 0.180839 15.5272C-0.10453 15.7837 -0.0636401 15.8846 0.385722 16.0326C0.539924 16.0834 0.679935 16.1421 0.696886 16.163C0.713794 16.1839 0.658497 16.3128 0.573956 16.4496C-0.0148133 17.4017 -0.157843 19.0298 0.19158 20.8021C0.357686 21.6446 0.698568 22.3583 1.09423 22.6918C1.22682 22.8035 1.65358 23.0144 2.25732 23.2665C2.78182 23.4855 3.46328 23.7711 3.77169 23.9013C4.08009 24.0315 4.8856 24.3678 5.56172 24.6487C6.23783 24.9295 7.04334 25.2657 7.35175 25.3957C7.66015 25.5258 8.46566 25.8622 9.14178 26.1433C9.81789 26.4245 10.5749 26.7414 10.824 26.8475C11.3494 27.0715 11.1401 27.0998 12.8081 26.5786C13.3893 26.397 14.0978 26.1761 14.3825 26.0878C14.9561 25.9098 16.3412 25.4782 17.4018 25.1471C17.7814 25.0286 18.3831 24.8416 18.7389 24.7315C19.9945 24.3431 20.645 24.1408 21.4132 23.8999C23.1324 23.3608 24.5151 22.9308 25.2426 22.7089C25.6742 22.5772 26.0512 22.4315 26.1048 22.3757L26.2003 22.2765L26.1144 22.1547C25.9365 21.9022 25.423 21.6088 24.6197 21.3007L24.2462 21.1574L24.2148 20.6747C24.1131 19.1062 24.4214 17.9579 25.0447 17.584C25.5257 17.2954 25.5849 17.2512 25.6662 17.12C25.8381 16.8427 25.7318 16.5579 25.4157 16.4481C25.0255 16.3127 25.0253 16.3119 25.2895 15.9778C25.8642 15.2515 26.1546 14.0571 26.1517 12.4322C26.1498 11.329 26.0373 10.7699 25.6823 10.098C25.5488 9.84538 25.5076 9.87673 26.2806 9.64283C27.0233 9.41812 27.1103 9.34155 26.9019 9.09629C26.7402 8.90599 26.4489 8.74011 25.7481 8.43928L25.0795 8.1523L25.0519 7.82688C24.9744 6.91552 25.0604 5.905 25.2587 5.39619C25.4561 4.88976 25.5615 4.76107 25.985 4.50855C26.5054 4.19835 26.6753 3.91686 26.5137 3.63287C26.4808 3.57503 26.1234 3.40844 25.5971 3.20545C24.176 2.65753 23.4467 2.37337 23.3326 2.32312C23.2733 2.29703 22.9919 2.18689 22.7072 2.07847C22.4225 1.97005 21.7626 1.7147 21.2407 1.51105C20.7188 1.30739 20.2044 1.11016 20.0976 1.07276C19.9909 1.03537 19.8065 0.966505 19.6879 0.919746C17.7281 0.147172 17.3047 -0.00712168 17.1649 0.000246725C17.1054 0.00334921 16.5327 0.101299 15.8921 0.217864ZM2.25279 4.10029C2.08651 4.16206 1.92157 4.42522 1.79851 4.82505C1.72639 5.05951 1.70422 5.2778 1.68925 5.90073C1.65777 7.20948 1.852 8.10665 2.26888 8.57795C2.37852 8.70194 2.49287 8.80338 2.52293 8.80338C2.553 8.80338 2.85597 8.90455 3.1962 9.02815C3.80839 9.25064 4.08005 9.34815 5.04412 9.69158C5.31694 9.78875 5.69543 9.92626 5.88522 9.99706C6.42227 10.1976 9.59313 11.3373 10.3495 11.6018C10.8285 11.7692 11.4657 12.0011 11.8129 12.1343C11.9654 12.1929 12.104 12.2215 12.121 12.1979C12.1673 12.1335 12.2637 8.13674 12.2202 8.08577C12.1995 8.06172 11.513 7.76327 10.6946 7.42261C9.87612 7.082 9.09972 6.75608 8.96925 6.6984C8.83877 6.64073 8.00414 6.29048 7.11452 5.92012C4.60959 4.87713 3.41717 4.37774 3.00995 4.20096C2.62085 4.03209 2.48511 4.01403 2.25279 4.10029ZM23.764 5.20395C23.2065 5.35353 22.2651 5.60323 21.672 5.75885C19.8723 6.23109 19.2208 6.40289 18.0057 6.72572C17.3651 6.89585 16.6082 7.09508 16.3235 7.16832C16.0388 7.24161 15.2818 7.44173 14.6413 7.61303C14.0007 7.78433 13.3195 7.96438 13.1273 8.01314L12.7779 8.10178L12.7501 9.02045C12.6793 11.3542 12.667 12.2383 12.7053 12.2383C12.7274 12.2383 15.0742 11.4925 17.9204 10.5809C20.7667 9.66931 23.4323 8.81773 23.844 8.68843L24.5926 8.45336L24.5668 8.25441C24.5526 8.14499 24.5288 7.74383 24.5141 7.36294C24.4827 6.55353 24.5687 5.74732 24.738 5.26483C24.7953 5.10118 24.8423 4.95785 24.8423 4.94627C24.8423 4.91442 24.8474 4.9132 23.764 5.20395ZM23.764 10.7925C23.42 10.9383 22.5853 11.2879 21.9092 11.5693C20.6992 12.0729 19.8211 12.4412 18.588 12.9623C18.244 13.1077 17.2395 13.5292 16.3558 13.8992L14.7491 14.5717L14.7485 14.8039C14.7472 15.2557 14.8477 18.6929 14.8628 18.7154C14.8772 18.7369 15.11 18.6596 15.9353 18.3598C16.1251 18.2908 16.5327 18.1433 16.8411 18.0319C17.1495 17.9205 17.528 17.7838 17.6822 17.728C17.9536 17.6298 19.7037 17.0014 20.0976 16.8607C20.2044 16.8225 20.7867 16.6117 21.3916 16.3922C21.9966 16.1727 22.6177 15.9489 22.7719 15.8948C22.9261 15.8408 23.2755 15.7157 23.5483 15.6169C23.8211 15.5181 24.1635 15.3945 24.3093 15.3423C24.7375 15.1887 24.9638 14.8897 25.1362 14.2497C25.286 13.694 25.3288 13.2248 25.3067 12.3843C25.2841 11.5291 25.2245 11.2387 24.9957 10.8705C24.8683 10.6654 24.6532 10.5186 24.4878 10.524C24.4337 10.5258 24.108 10.6466 23.764 10.7925ZM2.17735 11.5014C2.44521 12.2852 2.54019 13.1755 2.46708 14.2166C2.43982 14.6045 2.42407 14.9303 2.43209 14.9405C2.44012 14.9508 3.56969 15.318 4.94232 15.7564C6.31495 16.1948 8.96394 17.0411 10.8289 17.6369C12.6939 18.2327 14.2447 18.7203 14.275 18.7203C14.3299 18.7203 14.3168 17.5666 14.2368 15.344L14.2099 14.5993L13.2179 14.3389C12.6722 14.1958 11.8279 13.9726 11.3416 13.843C10.8552 13.7133 10.3312 13.5769 10.177 13.5398C9.91852 13.4775 8.42896 13.083 7.24391 12.7629C6.9711 12.6892 6.16558 12.4768 5.45388 12.291C3.80818 11.8612 2.88318 11.6132 2.2458 11.431C2.15967 11.4063 2.14875 11.4176 2.17735 11.5014ZM1.35622 17.16C1.02138 17.4224 0.861914 18.0315 0.860749 19.0527C0.8598 19.8731 0.959783 20.5816 1.14219 21.0471C1.38508 21.667 1.406 21.6819 2.67179 22.1312C2.99205 22.2448 3.62288 22.4712 4.07362 22.6342C5.50133 23.1504 5.77902 23.2503 6.66162 23.565C7.13608 23.7342 7.68927 23.9334 7.89091 24.0077C8.09256 24.082 8.44194 24.2084 8.66731 24.2886C8.89268 24.3687 9.27118 24.5047 9.50841 24.5907C10.8858 25.0904 11.2073 25.2022 11.2656 25.2022C11.3204 25.2022 11.3345 25.0029 11.3581 23.8864C11.3734 23.1628 11.3976 22.2335 11.4119 21.8214L11.4379 21.0722L11.1633 20.9526C11.0123 20.8867 10.219 20.5558 9.40058 20.2171C8.58212 19.8784 7.77661 19.5418 7.61055 19.469C7.44448 19.3963 6.61956 19.0491 5.77738 18.6974C4.93521 18.3458 3.97441 17.9439 3.64229 17.8044C1.71324 16.9939 1.60661 16.9638 1.35622 17.16ZM23.3758 18.0835C23.1267 18.1512 22.3891 18.3467 21.7367 18.5182C21.0843 18.6896 20.2206 18.9179 19.8173 19.0255C19.414 19.1332 18.8511 19.2816 18.5664 19.3554C16.8884 19.7902 16.1214 20.0209 15.5311 20.2682C14.9324 20.519 14.8499 20.5408 14.6804 20.4919C14.4788 20.4339 14.4818 20.4333 12.8151 20.8736C12.3562 20.9948 11.9732 21.1038 11.9638 21.1159C11.94 21.1465 11.8402 25.1966 11.8625 25.2236C11.8783 25.2426 16.8701 23.6678 17.7037 23.3808C17.8698 23.3236 19.2806 22.8712 20.8388 22.3754C22.3969 21.8795 23.6912 21.4584 23.715 21.4396C23.7431 21.4173 23.7446 21.2709 23.7193 21.0185C23.6663 20.4896 23.6682 19.5853 23.7231 19.1875C23.7481 19.0067 23.816 18.6667 23.8741 18.4319C23.9321 18.1972 23.9796 17.9915 23.9796 17.9749C23.9796 17.9293 23.8718 17.9487 23.3758 18.0835Z" fill="#009DE0"/>
</svg>
