<svg width="20" height="20" viewBox="0 0 20 20" fill="none" xmlns="http://www.w3.org/2000/svg">
<path d="M2.22222 20C1.61111 20 1.08778 19.7826 0.652222 19.3478C0.217407 18.9122 0 18.3889 0 17.7778V13.3333H2.22222V17.7778H17.7778V2.22222H2.22222V6.66667H0V2.22222C0 1.61111 0.217407 1.08778 0.652222 0.652222C1.08778 0.217407 1.61111 0 2.22222 0H17.7778C18.3889 0 18.9122 0.217407 19.3478 0.652222C19.7826 1.08778 20 1.61111 20 2.22222V17.7778C20 18.3889 19.7826 18.9122 19.3478 19.3478C18.9122 19.7826 18.3889 20 17.7778 20H2.22222ZM8.33333 15.5556L6.77778 13.9444L9.61111 11.1111H0V8.88889H9.61111L6.77778 6.05556L8.33333 4.44444L13.8889 10L8.33333 15.5556Z" fill="#009DE0"/>
<path d="M2.22222 20C1.61111 20 1.08778 19.7826 0.652222 19.3478C0.217407 18.9122 0 18.3889 0 17.7778V13.3333H2.22222V17.7778H17.7778V2.22222H2.22222V6.66667H0V2.22222C0 1.61111 0.217407 1.08778 0.652222 0.652222C1.08778 0.217407 1.61111 0 2.22222 0H17.7778C18.3889 0 18.9122 0.217407 19.3478 0.652222C19.7826 1.08778 20 1.61111 20 2.22222V17.7778C20 18.3889 19.7826 18.9122 19.3478 19.3478C18.9122 19.7826 18.3889 20 17.7778 20H2.22222ZM8.33333 15.5556L6.77778 13.9444L9.61111 11.1111H0V8.88889H9.61111L6.77778 6.05556L8.33333 4.44444L13.8889 10L8.33333 15.5556Z" fill="black" fill-opacity="0.2"/>
</svg>
