<svg width="26" height="39" viewBox="0 0 26 39" fill="none" xmlns="http://www.w3.org/2000/svg">
<path d="M11.0625 1.52858C11.0821 1.30056 11.3824 0.857379 11.7298 0.543959C12.8355 -0.454341 14.4971 -0.0211052 14.9148 1.37436C15.0747 1.90771 15.1271 6.09327 15.083 14.7602L15.0186 27.3702L14.3225 27.9748C13.398 28.7783 12.5254 28.7778 11.6987 27.9738L11.0757 27.3679L11.0512 14.6555C11.0378 7.66369 11.0427 1.75659 11.0625 1.52858Z" fill="#009DE0"/>
<path d="M16.7237 1.18344L17.4198 0.578579C18.4016 -0.274619 19.7836 -0.163098 20.4151 0.820277C20.8145 1.44235 20.783 27.6233 20.3814 28.7567C19.6233 30.8968 18.2601 32.387 16.2006 33.3264C15.1874 33.7886 14.7296 33.8655 12.9939 33.8655C11.1872 33.8655 10.8323 33.8002 9.6995 33.2592C8.12702 32.5084 6.70331 31.1142 5.97887 29.6161L5.42771 28.476L5.36932 16.6314L5.31113 4.78674L5.97184 4.24592C7.06222 3.35354 8.42902 3.57203 9.04881 4.7374C9.32396 5.255 9.37107 6.94688 9.37405 16.3911L9.37768 27.4396L9.8536 28.2532C10.4269 29.2331 11.8551 30.0307 13.0359 30.0307C14.1085 30.0307 15.3856 29.3879 16.0131 28.5326L16.5105 27.8542L16.6171 14.5187L16.7237 1.18344Z" fill="#009DE0"/>
<path d="M0.000329132 19.2853C0.00842812 10.7175 0.0235622 10.5873 1.08197 9.99548C1.81067 9.58795 2.98694 9.80186 3.56282 10.4465C4.04215 10.9832 4.04236 10.9865 4.04236 18.924C4.04236 23.367 4.13678 27.3567 4.25656 27.9814C4.5867 29.7011 5.59119 31.4852 6.91559 32.7035C9.06416 34.6798 11.8958 35.4842 14.701 34.9154C17.801 34.2867 20.1465 32.3652 21.4223 29.4088C21.7787 28.5832 21.8335 27.786 21.9006 22.4647L21.9761 16.4533L22.5132 15.9038C22.8088 15.6016 23.3054 15.306 23.6168 15.2471C24.368 15.1051 25.4503 15.6213 25.7521 16.2657C26.1161 17.0424 26.0656 27.4655 25.6897 29.17C25.1863 31.4539 24.013 33.4497 22.072 35.3242C19.2876 38.013 16.7865 39.0139 12.8873 38.9999C11.1887 38.9938 10.4099 38.8831 9.05095 38.4547C4.64829 37.0663 1.16552 33.2598 0.307451 28.8987C0.06299 27.6554 -0.00542541 25.5156 0.000329132 19.2853Z" fill="#009DE0"/>
</svg>
