<svg width="201" height="184" viewBox="0 0 201 184" fill="none" xmlns="http://www.w3.org/2000/svg">
<path d="M155.884 77.2842C155.944 77.7383 156.165 78.1433 156.491 78.3779L156.638 78.4678C156.733 78.5167 156.957 78.5829 157.369 78.6416C157.766 78.6982 158.29 78.7416 158.946 78.7705C159.93 78.8138 161.191 78.8237 162.732 78.7988L164.367 78.7627C168.312 78.6534 170.739 78.4426 172.579 77.8887C174.161 77.4122 175.329 76.675 176.668 75.4678L177.254 74.9209C178.813 73.422 179.758 72.2115 180.324 70.8379C180.892 69.4613 181.101 67.8736 181.101 65.585C181.101 63.2998 180.88 61.6794 180.301 60.2764C179.723 58.8764 178.769 57.6466 177.223 56.1758V56.1748C175.727 54.7527 174.427 53.8776 172.731 53.3213C171.231 52.8289 169.396 52.5782 166.804 52.4531L165.645 52.4072C163.005 52.3217 161.625 52.2963 160.792 52.3994C160.388 52.4494 160.15 52.526 159.975 52.6201C159.843 52.6909 159.727 52.7825 159.591 52.916L159.446 53.0635C159.069 53.4662 158.954 53.6763 158.924 53.8389C158.903 53.953 158.915 54.0982 159.012 54.3545L159.139 54.6504C159.267 54.9222 159.344 55.0478 159.442 55.1357C159.533 55.2167 159.686 55.3038 160.036 55.3789C160.589 55.4972 161.477 55.5564 163.019 55.6113L164.79 55.667C168.087 55.7622 170.331 56.0064 172.045 56.6514C173.684 57.2683 174.805 58.2388 175.901 59.6953L176.12 59.9922C176.775 60.9026 177.19 61.5782 177.423 62.4121C177.652 63.2316 177.696 64.1709 177.696 65.585C177.696 66.9993 177.652 67.9367 177.425 68.75C177.222 69.4752 176.88 70.0749 176.361 70.8115L176.128 71.1367C174.87 72.8594 173.723 73.9406 171.827 74.583C170.212 75.1301 168.074 75.3505 164.897 75.458L163.471 75.498C161.585 75.5411 159.81 75.6352 158.468 75.752C157.796 75.8104 157.24 75.8741 156.835 75.9385C156.632 75.9708 156.476 76.0018 156.366 76.0303C156.319 76.0426 156.286 76.053 156.265 76.0605C155.965 76.3191 155.817 76.7766 155.884 77.2842ZM140.776 70.4873C140.028 71.2119 140.024 72.1469 140.572 72.7021C140.589 72.709 140.63 72.7253 140.708 72.7451C140.851 72.7815 141.063 72.8182 141.358 72.8535C141.947 72.924 142.816 72.9824 144.019 73.0273C146.421 73.1171 150.114 73.1553 155.482 73.1553C163.523 73.1553 167.532 73.1454 169.848 72.792C170.988 72.618 171.67 72.3656 172.206 72.0176C172.616 71.751 172.961 71.417 173.369 70.9658L173.803 70.4736C176.249 67.6606 176.326 63.8463 174.032 60.9707L173.803 60.6953C172.719 59.449 171.963 58.8196 170.576 58.4629C169.123 58.0892 166.977 58.0137 163.088 58.0137C161.226 58.0137 159.792 58.0269 158.685 58.0771C157.571 58.1277 156.823 58.2152 156.316 58.3516C155.817 58.4862 155.625 58.65 155.53 58.8018C155.422 58.975 155.369 59.2385 155.369 59.7285C155.369 60.0795 155.443 60.2834 155.575 60.4326C155.72 60.596 156.001 60.7674 156.563 60.9082C157.702 61.1929 159.691 61.2871 163.093 61.2871C166.124 61.2871 167.767 61.2953 168.783 61.4561C169.308 61.5392 169.701 61.6675 170.047 61.874C170.3 62.0253 170.513 62.209 170.72 62.4121L170.926 62.6211C171.765 63.4852 172.231 64.679 172.355 65.7871C172.47 66.8036 172.306 67.8723 171.738 68.5605L171.62 68.6934C171.16 69.1632 170.435 69.4497 169.897 69.6162C169.617 69.7033 169.361 69.7646 169.176 69.8047C169.083 69.8248 169.007 69.8397 168.954 69.8496C168.928 69.8545 168.906 69.8588 168.892 69.8613L168.868 69.8652H168.866L168.826 69.8721H168.787L155.31 69.8818L151.202 69.8877C147.539 69.8999 145.153 69.9347 143.578 70.0137C142.526 70.0664 141.861 70.138 141.426 70.2295C140.994 70.3205 140.845 70.419 140.775 70.4863L140.776 70.4873ZM154.391 65.5293C154.338 65.8617 154.339 66.1743 154.389 66.4131C154.429 66.6068 154.489 66.7026 154.53 66.7461C154.549 66.7493 154.572 66.7537 154.602 66.7578C154.708 66.7728 154.861 66.7886 155.06 66.8047C155.456 66.8368 156.008 66.8676 156.678 66.8955C157.681 66.9373 158.94 66.9726 160.317 66.9941L161.729 67.0107C164.556 67.0347 166.32 67.0145 167.448 66.9189C168.462 66.8331 168.861 66.6906 169.051 66.5537L169.12 66.4961C169.468 66.1589 169.572 65.6184 169.415 65.0869C169.278 64.6222 168.966 64.2469 168.561 64.0879L168.383 64.0342H168.382C167.898 63.9273 166.886 63.8454 165.578 63.7969C164.286 63.749 162.75 63.7343 161.247 63.75C159.744 63.7657 158.281 63.8116 157.137 63.8848C156.564 63.9214 156.076 63.9643 155.707 64.0127C155.522 64.0369 155.373 64.0625 155.261 64.0869L155.095 64.1318C154.972 64.1952 154.822 64.3487 154.682 64.6162C154.546 64.8757 154.443 65.1988 154.391 65.5293Z" fill="white" stroke="white"/>
<path d="M74.7265 58.9478C75.3733 58.5745 76.2584 58.4688 77.1454 58.6353C77.9755 58.7911 78.7499 59.1747 79.2753 59.7212L79.3769 59.8325C79.6257 60.1201 79.7586 60.2781 79.869 60.6157C79.9906 60.9875 80.0848 61.5873 80.1483 62.7476C80.275 65.0584 80.2753 69.3992 80.2753 78.1265C80.2753 83.0091 80.3259 87.6441 80.4081 91.231C80.4492 93.0239 80.4977 94.5574 80.5526 95.73C80.5933 96.5974 80.6376 97.2886 80.6874 97.7417L80.7392 98.1138C81.4386 101.875 83.5155 105.759 86.2753 108.496L86.5448 108.757C91.0845 113.068 97.0362 114.911 102.982 113.854L103.558 113.743C110.112 112.371 115.122 108.256 117.951 101.966L118.219 101.35C118.627 100.373 118.852 99.4214 118.996 97.2671C119.103 95.6605 119.167 93.3603 119.222 89.8472L119.274 85.9106L119.433 72.9009L120.441 71.8364C120.72 71.5424 121.106 71.241 121.502 70.9976C121.804 70.8117 122.088 70.6751 122.315 70.5981L122.522 70.5415C123.181 70.4131 124.042 70.5794 124.836 70.9702C125.533 71.3134 126.1 71.7904 126.402 72.2827L126.515 72.4946C126.532 72.5333 126.57 72.662 126.611 72.9243C126.65 73.1704 126.687 73.4928 126.722 73.8853C126.79 74.6694 126.846 75.7087 126.889 76.9272C126.975 79.3632 127.009 82.4954 126.994 85.6938C126.979 88.892 126.915 92.1522 126.805 94.8442C126.708 97.2166 126.576 99.111 126.418 100.141L126.349 100.529C125.333 105.285 123.009 109.469 119.163 113.416L118.786 113.797C115.855 116.719 113.097 118.7 110.066 119.952C107.036 121.204 103.701 121.74 99.5976 121.725L98.3446 121.708C95.8013 121.646 94.2932 121.399 92.1054 120.717L91.5878 120.552C82.5346 117.605 75.3385 109.597 73.4071 100.383L73.3192 99.9429C72.8739 97.6044 72.7047 93.7591 72.6776 83.6509L72.6747 78.9214C72.6833 69.492 72.6966 64.7543 72.9843 62.2036C73.1281 60.929 73.334 60.2777 73.5907 59.8735C73.7762 59.5817 74.0037 59.3903 74.3446 59.1753L74.7255 58.9478H74.7265ZM109.574 38.2026C111.468 36.504 114.012 36.7764 115.17 38.5952C115.177 38.6226 115.186 38.6669 115.197 38.7319C115.219 38.8635 115.242 39.0502 115.265 39.2935C115.309 39.7787 115.352 40.4596 115.391 41.311C115.468 43.0121 115.531 45.3747 115.581 48.1841C115.681 53.8023 115.725 61.1939 115.717 68.6216C115.708 76.0491 115.646 83.5104 115.533 89.269C115.477 92.1487 115.408 94.5996 115.326 96.4067C115.285 97.3106 115.242 98.0494 115.195 98.5981C115.172 98.8727 115.148 99.0955 115.125 99.2651C115.112 99.3552 115.101 99.4229 115.092 99.4712L115.069 99.563C113.548 103.996 110.864 107.106 106.828 109.119L106.434 109.31C105.375 109.809 104.638 110.084 103.725 110.243C102.798 110.404 101.67 110.447 99.8222 110.447C97.8947 110.447 96.7904 110.41 95.873 110.236C95.1967 110.107 94.6105 109.901 93.8554 109.558L93.0341 109.167C89.8886 107.616 87.0254 104.771 85.4931 101.699L85.3485 101.401L84.2216 98.9946L84.0985 73.0884L83.9755 47.3052L85.204 46.2671C86.2692 45.3674 87.4325 45.0565 88.4491 45.2241C89.3979 45.3808 90.2733 45.9628 90.8681 46.9839L90.9833 47.1938C91.0855 47.3924 91.1945 47.7609 91.2851 48.5815C91.3745 49.3923 91.4417 50.595 91.4911 52.4243C91.5899 56.0805 91.6169 62.1886 91.62 72.563L91.6278 96.8325V96.9634L91.6933 97.0786L92.706 98.8657C93.3707 100.038 94.5097 101.073 95.7919 101.812C97.0745 102.552 98.5481 103.024 99.912 103.024C101.15 103.024 102.478 102.642 103.665 102.026C104.778 101.448 105.796 100.647 106.515 99.7114L106.654 99.5229V99.522L107.713 98.0317L107.805 97.9038L107.806 97.7466L108.032 68.4546L108.257 39.3833L109.574 38.2026ZM97.4735 38.1196C99.4943 36.2363 102.455 36.9676 103.35 39.4692L103.43 39.7173C103.457 39.8109 103.494 40.0371 103.529 40.4409C103.564 40.8308 103.595 41.3519 103.623 42.0103C103.679 43.3267 103.723 45.175 103.752 47.5854C103.796 51.2006 103.81 56.0728 103.794 62.2983L103.767 68.978L103.632 96.4546L102.316 97.6353C101.386 98.4698 100.543 98.8309 99.7802 98.8306C99.1182 98.8302 98.4354 98.5577 97.7265 97.939L97.4208 97.6528L96.2401 96.4673L96.1894 68.7495C96.1751 61.0712 96.1704 53.9887 96.1747 48.7632C96.1769 46.1505 96.181 44.0021 96.1874 42.4761C96.1906 41.713 96.1939 41.1056 96.1982 40.6743C96.2003 40.4586 96.2026 40.2876 96.205 40.1636C96.2062 40.1018 96.2077 40.0527 96.2089 40.0161C96.2095 39.9978 96.2104 39.9828 96.2108 39.9722V39.9585C96.2206 39.8417 96.3278 39.5628 96.579 39.1802C96.7563 38.9101 96.9805 38.626 97.2245 38.3677L97.4735 38.1196Z" fill="white" stroke="white"/>
<path d="M86.9619 36.2373C87.0368 35.9062 86.9371 35.5606 86.5361 35.2656C86.532 35.2643 86.527 35.2623 86.5215 35.2607C86.478 35.2483 86.4109 35.2327 86.3154 35.2158C86.125 35.1822 85.8554 35.148 85.5049 35.1143C84.8057 35.0469 83.8173 34.9847 82.5644 34.9287C80.6865 34.8448 78.2274 34.7763 75.2822 34.7275L72.1787 34.6855C72.1684 34.6859 72.1545 34.6869 72.1377 34.6875C72.0959 34.6889 72.0343 34.6909 71.955 34.6934C71.7962 34.6982 71.5657 34.7042 71.2783 34.7109C70.7033 34.7245 69.8998 34.7391 68.9863 34.7422C67.392 34.7476 65.4478 34.7193 63.7929 34.5908L63.1035 34.5293C61.6639 34.3831 60.2348 34.2957 58.9707 34.1289C57.8528 33.9814 56.7972 33.7655 55.8564 33.3652L55.4609 33.1826C54.4704 32.6856 53.6855 32.1751 53.0058 31.5391C52.411 30.9824 51.9103 30.3421 51.4238 29.5557L51.2158 29.21C50.4187 27.8448 49.9418 26.7793 49.7998 25.6836C49.6749 24.7192 49.8149 23.7745 50.1513 22.6328L50.3076 22.1299C51.5604 18.2795 56.007 15.4479 60.7382 15.2549L61.1972 15.2441L63.0664 15.2363V9.58789C63.0664 7.10725 63.0234 5.56577 62.8974 4.57324C62.7707 3.5749 62.5713 3.25045 62.3662 3.07519H62.3672C61.9125 2.68724 61.5502 2.52218 61.209 2.49023C60.9076 2.46206 60.5603 2.53209 60.1064 2.75L59.9052 2.85253C59.8143 2.90148 59.6237 3.10475 59.4472 3.86523C59.3215 4.40701 59.2193 5.15192 59.1338 6.15429L59.0537 7.24511L58.7754 11.5977L58.7529 11.9394L58.4277 12.042L55.5478 12.957C49.7559 14.7972 46.0949 19.4178 46.0683 24.7568L46.0761 25.2559C46.2477 30.2189 49.3474 34.3203 54.7734 36.5811L55.3242 36.8008C57.2596 37.5421 58.6475 37.7304 67.1308 37.8916L71.2236 37.9609C77.1576 38.052 80.5592 38.0799 82.6308 38C84.4495 37.9299 85.1782 37.7764 85.6689 37.5508L85.8672 37.4502L85.8681 37.4492C86.5443 37.0709 86.8772 36.6111 86.9619 36.2373ZM73.6884 19.8496C74.1261 19.2079 74.1759 18.8958 74.122 18.7051C74.0699 18.5204 73.8782 18.2819 73.331 17.9453L73.0742 17.7949C72.8715 17.6816 72.5168 17.566 72.0029 17.4668C71.4991 17.3695 70.8798 17.2942 70.1757 17.2412C68.7684 17.1353 67.0518 17.1208 65.2968 17.1895C63.5423 17.2581 61.7598 17.41 60.2216 17.6318C58.8637 17.8277 57.7311 18.0738 56.9775 18.3525L56.6777 18.4736C55.1339 19.1651 54.0183 20.1285 53.3242 21.3018C52.6739 22.401 52.3753 23.7165 52.4716 25.2285L52.4961 25.5332C52.6216 26.8246 52.9428 27.8353 53.5234 28.7168C54.0342 29.4922 54.7635 30.1947 55.792 30.9033L56.2509 31.208C57.2743 31.8611 58.1997 32.0788 62.3154 32.2158L64.2841 32.2705C67.2773 32.3418 68.9539 32.356 69.9629 32.2637C70.4641 32.2178 70.7618 32.1474 70.959 32.0654C71.0942 32.0091 71.1919 31.9433 71.2822 31.8555L71.3711 31.7598C71.8259 31.2289 71.9476 30.891 71.9345 30.6504C71.9235 30.4476 71.8095 30.1949 71.4472 29.8496L71.2763 29.6963C71.0544 29.507 70.6473 29.3323 69.6494 29.2207C68.6626 29.1104 67.1885 29.0693 64.9189 29.0693C62.3963 29.0693 60.871 29.0391 59.8545 28.8994C59.3391 28.8286 58.9318 28.7274 58.5791 28.5762C58.3112 28.4614 58.087 28.323 57.8779 28.1641L57.6728 27.998C56.6529 27.1272 56.1628 25.9676 56.2343 24.791C56.3012 23.6918 56.8545 22.6246 57.832 21.7978L58.0332 21.6357C58.3673 21.3791 58.6863 21.1599 59.082 20.9893C59.4774 20.8188 59.925 20.7076 60.5127 20.6318C61.6683 20.4828 63.4593 20.4629 66.6318 20.4629C69.6338 20.4629 71.347 20.4343 72.3711 20.3203C72.8823 20.2634 73.1811 20.1892 73.3681 20.1074C73.4929 20.0529 73.5704 19.9945 73.6318 19.9238L73.6884 19.8496ZM75.0859 25.0518C75.0819 25.0327 75.0709 24.9991 75.0439 24.9453C75.0149 24.8875 74.9741 24.8199 74.9179 24.7383L74.7002 24.4434H74.6992C74.5317 24.2276 74.4057 24.1016 74.2295 24.0039C74.0432 23.9007 73.7624 23.8087 73.2597 23.7344C72.4953 23.6213 71.3208 23.5628 69.3867 23.5146L67.1865 23.4687C65.2897 23.4331 63.8111 23.4221 62.6582 23.4561C61.4993 23.4902 60.6989 23.5692 60.1455 23.7021C59.5929 23.8349 59.3581 24.0046 59.2412 24.165C59.1198 24.3316 59.0547 24.583 59.0547 25.0449C59.0547 25.3897 59.1323 25.596 59.2783 25.752C59.4406 25.9253 59.7491 26.1032 60.3466 26.249C61.5512 26.5429 63.6361 26.6426 67.1484 26.6426C70.0473 26.6426 71.6508 26.6162 72.6591 26.4854C73.1554 26.421 73.482 26.3337 73.7343 26.2246C73.9202 26.1442 74.0794 26.0461 74.247 25.917L74.4189 25.7773C74.6783 25.5559 74.8503 25.3974 74.9619 25.2695C75.0733 25.1418 75.0863 25.0872 75.0879 25.0781C75.0884 25.075 75.0893 25.0681 75.0859 25.0518Z" fill="white" stroke="white"/>
<path d="M165.449 91.9395C165.45 91.993 165.47 92.0841 165.577 92.2393C165.658 92.3585 165.779 92.4967 165.946 92.665L166.129 92.8438C166.225 92.9341 166.402 93.048 166.714 93.1738C167.023 93.298 167.437 93.4233 167.981 93.5518C168.797 93.7445 169.879 93.9383 171.292 94.1455L172.819 94.3574C176.615 94.8615 179.092 95.2972 180.896 95.9014C182.5 96.4388 183.575 97.1098 184.578 98.0635L185.004 98.4902C189.108 102.781 187.831 109.587 182.54 112.704L182.285 112.85C181.338 113.374 179.679 113.76 177.807 113.943L176.993 114.009C176.043 114.07 175.116 114.177 174.388 114.298C174.024 114.359 173.716 114.421 173.486 114.482C173.371 114.513 173.281 114.541 173.216 114.565L173.145 114.595C172.856 114.812 172.697 115.249 172.758 115.756C172.812 116.197 173.02 116.58 173.316 116.792L173.448 116.873C173.539 116.919 173.714 116.972 173.988 117.018C174.254 117.061 174.582 117.092 174.96 117.109C175.716 117.144 176.64 117.123 177.603 117.053C179.425 116.92 181.311 116.621 182.422 116.235L182.634 116.157C192.776 112.154 193.479 98.5077 184.081 93.7793L183.625 93.5605C182.319 92.9641 179.905 92.3306 177.233 91.8848L176.075 91.7051C171.409 91.0423 169.061 90.715 167.762 90.6553C167.113 90.6254 166.787 90.6674 166.584 90.7354C166.448 90.7813 166.348 90.8439 166.214 90.96L166.067 91.0947C165.814 91.3341 165.651 91.516 165.554 91.6641C165.461 91.8063 165.447 91.8889 165.449 91.9395ZM149.794 114.792C149.815 114.973 149.936 115.211 150.309 115.562L150.486 115.719C150.642 115.852 150.77 115.935 151.057 115.979C151.385 116.028 151.909 116.022 152.85 115.919C154.255 115.765 156.486 115.404 160.176 114.767L164.376 114.034C172.716 112.572 176.855 111.846 179.169 111.259C180.321 110.967 180.987 110.717 181.481 110.444C181.85 110.241 182.136 110.019 182.473 109.728L182.833 109.41C186.66 106 185.514 99.6559 180.716 97.5967L180.486 97.502C180.359 97.4523 179.977 97.3674 179.33 97.2588C178.706 97.1541 177.885 97.0356 176.924 96.9111C175.484 96.7244 173.736 96.5247 171.876 96.3379L169.987 96.1563C165.993 95.7895 163.651 95.6012 162.19 95.5713C160.906 95.545 160.376 95.6452 160.032 95.8057L159.894 95.8779C159.363 96.1872 159.122 96.5865 159.081 96.9346C159.04 97.2733 159.176 97.6611 159.601 97.9941L159.593 97.9873C159.597 97.9876 159.643 98.0118 159.769 98.0508C159.911 98.0945 160.108 98.1439 160.361 98.1973C160.866 98.3037 161.563 98.4202 162.425 98.542C163.717 98.7245 165.364 98.9165 167.261 99.1035L169.238 99.2881C171.758 99.5113 174.152 99.7531 175.981 99.9629C176.895 100.068 177.67 100.166 178.25 100.249C178.54 100.291 178.785 100.329 178.975 100.363C179.15 100.395 179.319 100.431 179.43 100.473H179.431C179.823 100.621 180.169 100.91 180.455 101.243C180.744 101.581 180.996 101.993 181.196 102.429C181.563 103.232 181.786 104.196 181.669 105.021L181.641 105.183C181.431 106.22 180.887 106.989 179.854 107.57C178.986 108.058 177.772 108.416 176.128 108.729L175.397 108.861C165.444 110.567 159.232 111.669 155.437 112.434C153.538 112.816 152.256 113.111 151.419 113.353C151 113.473 150.706 113.576 150.507 113.665C150.4 113.713 150.335 113.751 150.297 113.775L150.253 113.806C149.853 114.305 149.772 114.592 149.794 114.792ZM150.241 108.306C150.241 108.905 150.294 109.127 150.415 109.256C150.537 109.387 150.858 109.55 151.81 109.579C153.209 109.622 155.607 109.381 159.732 108.868L164.459 108.265C168.164 107.785 171.614 107.283 174.211 106.856C175.511 106.643 176.593 106.449 177.386 106.287C177.783 106.206 178.102 106.134 178.337 106.072C178.455 106.041 178.547 106.014 178.615 105.991L178.703 105.959C179.151 105.696 179.391 105.405 179.498 105.152C179.601 104.906 179.593 104.664 179.493 104.441C179.287 103.986 178.616 103.494 177.424 103.494C176.755 103.494 174.785 103.695 172.149 104.014C169.531 104.33 166.298 104.758 163.132 105.2C159.967 105.643 156.872 106.1 154.532 106.477C153.361 106.665 152.383 106.832 151.68 106.967C151.328 107.034 151.051 107.093 150.856 107.141C150.759 107.164 150.688 107.183 150.642 107.198C150.569 107.269 150.471 107.409 150.387 107.615C150.295 107.843 150.241 108.094 150.241 108.306Z" fill="white" stroke="white"/>
<path d="M28.7769 94.9717C28.7505 94.6114 28.5882 94.2058 28.272 93.8428L28.1275 93.6904C27.8736 93.4447 27.6005 93.2876 26.9224 93.2139C26.3852 93.1555 25.6315 93.1541 24.4976 93.1982L23.23 93.2568C22.0269 93.3198 20.7328 93.4588 19.6206 93.6309C18.6335 93.7836 17.8268 93.9571 17.3521 94.1162L17.1695 94.1836C16.0295 94.6506 14.6801 95.5727 13.4097 96.7178C12.3006 97.7175 11.2756 98.865 10.522 99.9844L10.2163 100.462C9.65003 101.395 9.35292 102.01 9.18411 102.804C9.01067 103.619 8.96732 104.647 8.96732 106.416C8.96732 108.183 9.01108 109.211 9.18411 110.026C9.33144 110.72 9.57673 111.277 10.0132 112.027L10.2124 112.362C11.5827 114.619 13.1129 116.272 14.9224 117.427C16.6185 118.509 18.5852 119.171 20.9429 119.464L21.4195 119.517C23.2048 119.697 24.4714 119.688 25.3238 119.504C26.0585 119.345 26.4049 119.079 26.563 118.762L26.6197 118.623C26.7644 118.181 26.7908 117.863 26.7447 117.631C26.7023 117.418 26.591 117.236 26.3579 117.067C26.1104 116.888 25.7253 116.725 25.1509 116.593C24.7233 116.494 24.2088 116.417 23.5982 116.358L22.9556 116.305C20.8048 116.156 19.0615 115.779 17.5962 115.078C16.2154 114.418 15.1058 113.481 14.1392 112.225L13.9478 111.97C13.2961 111.076 12.8838 110.411 12.6519 109.582C12.4243 108.768 12.3804 107.831 12.3804 106.416C12.3804 105.001 12.4243 104.063 12.6519 103.249C12.8548 102.524 13.1957 101.924 13.7144 101.187L13.9478 100.862C15.0386 99.3668 16.2149 98.3262 17.7964 97.6377C19.1662 97.0414 20.8125 96.7215 22.9195 96.5674L23.8521 96.5107C24.9955 96.4551 26.1 96.3514 26.9556 96.2305C27.3844 96.1699 27.7437 96.1065 28.0103 96.0439C28.1439 96.0126 28.2466 95.9827 28.3199 95.957C28.3626 95.942 28.3859 95.932 28.3951 95.9277C28.6693 95.7101 28.8063 95.374 28.7769 94.9717ZM49.8843 95.6396C49.885 95.5811 49.8544 95.4521 49.7339 95.2598C49.6194 95.0771 49.45 94.8792 49.2476 94.6963C49.0458 94.5139 48.8237 94.3574 48.6128 94.249C48.3953 94.1373 48.2238 94.0947 48.1138 94.0947C48.1089 94.0951 48.0878 94.0965 48.0425 94.1016C47.9899 94.1075 47.9188 94.1163 47.8296 94.1289C47.6513 94.1542 47.4088 94.1922 47.1089 94.2412C46.5095 94.3392 45.6882 94.4815 44.7036 94.6572C43.7193 94.833 42.5731 95.0416 41.3247 95.2734L37.3335 96.0264C32.4544 96.9608 26.9392 97.9685 24.1275 98.4424L23.0982 98.6113C19.9535 99.1043 17.8457 99.9368 16.522 101.19C15.2195 102.424 14.607 104.134 14.607 106.559C14.607 107.904 14.8731 109.053 15.4175 110.069C15.8947 110.96 16.5968 111.77 17.5591 112.529L17.9878 112.852C18.8847 113.496 19.6726 113.719 23.0659 113.856L24.689 113.91L29.9576 114.061L30.4214 113.073C30.5553 112.789 30.6378 112.591 30.6802 112.439C30.7206 112.295 30.7143 112.226 30.7046 112.187C30.6947 112.146 30.6668 112.079 30.5601 111.963C30.5048 111.903 30.4353 111.837 30.3482 111.762L30.0298 111.502C29.2646 110.902 28.4151 110.715 24.8589 110.715C22.9567 110.715 21.7892 110.686 20.9868 110.529C20.5732 110.449 20.2371 110.332 19.9361 110.157C19.7118 110.027 19.5202 109.873 19.3384 109.7L19.1587 109.521C18.4258 108.76 18.0191 107.593 18.0191 106.409C18.0191 105.664 18.0929 104.99 18.3911 104.398C18.697 103.792 19.2071 103.334 19.9585 102.954C20.6991 102.579 21.702 102.266 23.0367 101.954C24.0415 101.719 25.2519 101.482 26.7056 101.222L28.2417 100.953C35.6231 99.6856 40.9072 98.7146 44.399 97.9766C46.1462 97.6072 47.4345 97.2985 48.3091 97.042C48.7476 96.9134 49.0689 96.801 49.2876 96.7061C49.3969 96.6586 49.4697 96.6202 49.5142 96.5918C49.5233 96.586 49.5305 96.5809 49.5357 96.5771C49.6257 96.434 49.7136 96.2509 49.7798 96.0684C49.8532 95.866 49.8831 95.712 49.8843 95.6396ZM49.8579 110.728C49.8796 110.368 49.7288 109.977 49.3443 109.657C49.3377 109.654 49.3291 109.651 49.3179 109.646C49.2688 109.628 49.1956 109.603 49.0952 109.573C48.8951 109.514 48.6141 109.441 48.2593 109.356C47.551 109.189 46.5715 108.98 45.4029 108.746C43.067 108.278 39.9908 107.711 36.8472 107.161C33.7036 106.611 30.4953 106.08 27.897 105.685C25.6052 105.336 23.8248 105.099 22.9683 105.042L22.6587 105.028C21.5366 105.019 20.8456 105.466 20.5904 105.928C20.465 106.155 20.4299 106.403 20.4966 106.658C20.5635 106.913 20.7422 107.207 21.0972 107.497C21.1052 107.501 21.1186 107.507 21.1392 107.516C21.1937 107.538 21.2736 107.565 21.3814 107.599C21.5965 107.665 21.8972 107.745 22.2779 107.837C23.0376 108.02 24.0919 108.245 25.3726 108.497C27.2924 108.875 29.7107 109.311 32.3872 109.76L35.1411 110.211C40.9018 111.133 44.2846 111.645 46.3267 111.86C47.3498 111.968 48.0119 111.999 48.4576 111.974C48.7897 111.955 48.9727 111.908 49.0835 111.857L49.1724 111.808H49.1734C49.6273 111.5 49.8356 111.098 49.8579 110.728Z" fill="white" stroke="white"/>
<path d="M59.476 59.771C59.5191 59.3908 59.4708 58.9377 59.312 58.4624L59.2368 58.2583V58.2573C59.2362 58.2554 59.2365 58.2534 59.2241 58.2437C59.2029 58.2271 59.1463 58.1919 59.019 58.1519C58.7549 58.0689 58.2973 57.9972 57.5005 57.9438C55.9179 57.8378 53.1642 57.813 48.3481 57.813H36.9282L36.8198 57.4614L36.2475 55.6167C35.8219 54.2429 35.3251 53.4506 34.6196 52.9829C33.9924 52.5672 33.1307 52.3602 31.8354 52.3345H31.2534C20.0716 52.5353 14.4666 66.3162 22.0561 74.4517L22.4272 74.8345C23.8609 76.2576 25.2841 77.1916 27.1538 77.8042C28.8039 78.3448 30.8197 78.6409 33.5288 78.7808L34.7339 78.8315C37.9081 78.937 39.8077 78.8848 40.9096 78.6069C41.4515 78.4703 41.7322 78.2943 41.8833 78.1177C42.0258 77.9508 42.1069 77.7194 42.1069 77.3413C42.1069 76.8874 42.0514 76.6111 41.9477 76.4233C41.8553 76.2562 41.6914 76.1015 41.3296 75.9702C40.9532 75.8337 40.4008 75.7369 39.5854 75.6772C38.7758 75.618 37.7414 75.5969 36.4184 75.5962L35.3354 75.5894C32.9039 75.5581 31.1204 75.4156 29.6792 75.0728C28.0082 74.6752 26.8091 74.0116 25.5932 72.979H25.5942C24.3407 71.9148 23.4485 70.8578 22.8755 69.6421C22.3019 68.4251 22.0649 67.0857 22.0649 65.4849C22.0649 63.8829 22.3019 62.5442 22.8764 61.3267C23.3787 60.2624 24.1251 59.3192 25.146 58.3853L25.601 57.9849C26.5479 57.1808 27.9445 56.4581 29.2114 56.0044C29.8476 55.7766 30.4711 55.6098 31.0073 55.5366C31.2753 55.5001 31.5339 55.4849 31.768 55.5024C31.9392 55.5153 32.1179 55.5468 32.2837 55.6138L32.4448 55.6938C32.6845 55.8372 32.9721 56.0724 33.021 56.437C33.0745 56.8384 32.8128 57.121 32.5981 57.2788C32.3703 57.4463 32.0597 57.5818 31.7055 57.6938C31.4343 57.7797 31.1191 57.857 30.7651 57.9263L30.3989 57.9927C28.5137 58.3071 26.8287 59.4707 25.4624 61.4878L25.1928 61.9028C23.3504 64.8696 24.32 69.3761 27.3012 71.6685L27.5952 71.8833C27.9553 72.1317 28.2474 72.3086 28.5796 72.4458C28.9112 72.5827 29.3032 72.6886 29.8647 72.771C30.7213 72.8967 31.9299 72.9633 33.852 73.019L36.0258 73.0728L42.7788 73.2212L43.2221 72.2798C43.4646 71.7645 43.5078 71.5376 43.4848 71.3794C43.4681 71.2646 43.4075 71.128 43.2212 70.8989L42.9897 70.6353C42.813 70.4464 42.6633 70.3233 42.4712 70.228C42.2727 70.1297 41.9985 70.0473 41.5571 69.9849C40.658 69.8578 39.1974 69.8306 36.5434 69.8306C33.7584 69.8306 32.2133 69.8172 31.226 69.6538C30.7159 69.5694 30.326 69.442 29.977 69.2417C29.6351 69.0454 29.3578 68.7936 29.0649 68.5103H29.0659C27.3457 66.8471 27.2438 64.3851 28.8325 62.6919L28.9917 62.5308C29.2799 62.252 29.56 61.9839 30.0464 61.7876C30.5096 61.6006 31.1313 61.4892 32.102 61.4126C33.5605 61.2975 35.926 61.2536 39.9692 61.2192L44.6001 61.186C49.1812 61.155 52.7597 61.0856 55.2426 60.9829C56.4852 60.9315 57.4468 60.8728 58.1196 60.8062C58.457 60.7727 58.7122 60.7375 58.8901 60.7036C58.9794 60.6866 59.0396 60.6714 59.0766 60.6597H59.0776C59.2766 60.4841 59.4289 60.1877 59.476 59.771ZM45.0366 65.5688C45.0522 65.4629 45.0194 65.3022 44.7192 64.8892L44.5737 64.6968H44.5727C44.4447 64.5323 44.2019 64.3471 43.1733 64.2241C42.41 64.1329 41.2934 64.0822 39.6167 64.0513L37.7446 64.0269C34.3977 63.994 32.4426 64.0581 31.3257 64.3042C30.7707 64.4265 30.5014 64.5782 30.3667 64.7173C30.2509 64.8369 30.1841 64.9999 30.1841 65.3032C30.1843 65.3058 30.1855 65.3177 30.1909 65.3403C30.1976 65.3685 30.2095 65.4058 30.228 65.4526C30.2653 65.5472 30.3237 65.6633 30.4028 65.7925C30.5217 65.9867 30.6759 66.194 30.8481 66.3843L31.0258 66.5679C31.2216 66.7572 31.3907 66.8856 31.604 66.9849C31.8227 67.0866 32.1147 67.1702 32.5688 67.2329C33.4936 67.3607 34.9733 67.3882 37.6362 67.3882C40.2994 67.3882 41.7797 67.3607 42.7046 67.2329C43.1587 67.1701 43.4507 67.0867 43.6694 66.9849C43.8295 66.9103 43.9648 66.8195 44.1049 66.6987L44.2475 66.5679C44.5347 66.2901 44.7319 66.0807 44.8618 65.9077C44.99 65.7368 45.0269 65.6338 45.0366 65.5688Z" fill="white" stroke="white"/>
<path d="M131.305 0.506836C131.61 0.474565 131.99 0.557344 132.394 0.806641L132.569 0.923828C132.708 1.02468 132.871 1.22325 132.994 1.97852C133.086 2.54468 133.147 3.35506 133.192 4.54297L133.233 5.86133L133.355 10.6475L133.367 11.0938L133.812 11.1328L136.975 11.4072C138.918 11.5756 140.405 11.9248 141.723 12.5654C142.876 13.1257 143.924 13.9213 145.043 15.0557L145.527 15.5635C148.57 18.8474 149.496 22.7698 148.258 27.2344L148.133 27.668C147.694 29.1009 146.556 30.7626 145.107 32.208C143.75 33.5616 142.172 34.674 140.74 35.2168L140.456 35.3174C139.016 35.7925 136.2 36.0529 133.576 36.0625C132.273 36.0672 131.043 36.0097 130.083 35.8926C129.602 35.8339 129.2 35.7616 128.897 35.6787C128.652 35.6117 128.515 35.5489 128.45 35.5098L128.407 35.4795C128.189 35.2678 128.056 35.1248 127.977 35.0107C127.905 34.9071 127.901 34.8602 127.901 34.8369C127.901 34.801 127.913 34.7208 128.004 34.5518C128.049 34.4667 128.108 34.3705 128.183 34.2578L128.458 33.8662C128.605 33.6623 128.712 33.5451 128.833 33.4609C128.949 33.3793 129.11 33.3058 129.392 33.249C129.84 33.1589 130.508 33.1224 131.613 33.1094L132.872 33.1035C135.455 33.102 137.28 32.9746 138.752 32.584C140.058 32.237 141.069 31.6871 142.08 30.8721L142.514 30.5068C146.273 27.2119 146.609 21.2902 143.252 17.5801H143.253C142.126 16.3353 140.982 15.4976 139.476 14.9805C138.174 14.5333 136.626 14.3346 134.629 14.2881L133.744 14.2773L130.095 14.2686V8.21289C130.095 6.37773 130.147 4.6573 130.229 3.34082C130.271 2.68224 130.319 2.13068 130.373 1.71875C130.4 1.51224 130.427 1.3468 130.454 1.22461C130.477 1.11595 130.494 1.06851 130.498 1.05859C130.685 0.718818 130.971 0.542397 131.305 0.506836ZM132.099 16.5732C135.395 16.5732 137.208 16.638 138.466 16.958C139.518 17.2253 140.188 17.6721 141.046 18.5039L141.426 18.8848C144.157 21.6849 144.107 25.8305 141.358 28.5752L141.084 28.8359C140.157 29.6772 139.394 30.1499 138.212 30.4287C136.991 30.7165 135.311 30.8008 132.536 30.8008C131.108 30.8008 129.997 30.7772 129.144 30.71C128.28 30.6418 127.73 30.5313 127.393 30.3848C127.087 30.2513 127.017 30.119 126.993 29.9863C126.966 29.8386 126.987 29.6233 127.079 29.3018L127.196 28.9424C127.309 28.6307 127.362 28.5068 127.435 28.4219C127.487 28.362 127.584 28.2834 127.883 28.21C128.194 28.1339 128.663 28.0777 129.404 28.0283C129.772 28.0039 130.199 27.9811 130.697 27.958L132.418 27.8848C133.88 27.8241 135.052 27.7516 135.992 27.6328C136.928 27.5145 137.668 27.3466 138.253 27.0791C138.853 26.8043 139.283 26.4263 139.595 25.9131C139.822 25.5407 139.977 25.1107 140.1 24.6289L140.215 24.1299C140.341 23.516 140.383 22.996 140.173 22.4639C140.023 22.0855 139.758 21.7361 139.394 21.3516L138.998 20.9531V20.9521L137.634 19.6299L137.489 19.4883H131.904C129.753 19.4883 128.399 19.4536 127.516 19.3545C126.734 19.2667 126.405 19.135 126.231 19.0029L126.165 18.9463C125.766 18.5588 125.665 18.3542 125.648 18.1875C125.634 18.0475 125.671 17.8575 125.822 17.5312L126.014 17.1562C126.095 17.0103 126.153 16.9449 126.246 16.8916C126.36 16.826 126.566 16.7554 126.987 16.7012C127.834 16.5921 129.319 16.5732 132.099 16.5732ZM131.54 22.2295C132.982 22.2295 134.102 22.2446 134.974 22.293C135.853 22.3417 136.446 22.423 136.849 22.543C137.243 22.6604 137.398 22.7969 137.475 22.9209C137.563 23.0617 137.614 23.2806 137.614 23.6865C137.614 24.0932 137.563 24.3124 137.475 24.4531C137.398 24.577 137.243 24.7145 136.846 24.832C136.442 24.9519 135.846 25.0334 134.965 25.082C134.089 25.1304 132.963 25.1445 131.514 25.1445C128.797 25.1445 127.472 25.1358 126.755 25.0127C126.411 24.9537 126.282 24.8786 126.216 24.8203C126.159 24.7707 126.11 24.7038 126.039 24.5645L125.958 24.3994C125.801 24.0661 125.744 23.8213 125.747 23.6104C125.749 23.4548 125.783 23.2913 125.867 23.0986L125.968 22.8955C126.077 22.6989 126.145 22.615 126.232 22.5547C126.326 22.4899 126.493 22.4177 126.859 22.3613C127.61 22.2457 128.945 22.2295 131.54 22.2295Z" fill="white" stroke="white"/>
<mask id="path-8-outside-1_93_47" maskUnits="userSpaceOnUse" x="0.118668" y="139.11" width="201" height="45" fill="black">
<rect fill="white" x="0.118668" y="139.11" width="201" height="45"/>
<path d="M7.68857 155.683L3.4727 143.096H3.3871C3.40137 143.382 3.42277 143.79 3.4513 144.32C3.47984 144.835 3.50124 145.394 3.5155 145.995C3.54404 146.597 3.55831 147.162 3.55831 147.692V155.683H1.11867V140.346H4.90653L8.95119 152.396H9.01539L13.2313 140.346H17.0191V155.683H14.4511V147.563C14.4511 147.077 14.4582 146.547 14.4725 145.974C14.4867 145.387 14.5081 144.835 14.5367 144.32C14.5652 143.804 14.5866 143.403 14.6009 143.117H14.5153L10.1068 155.683H7.68857Z"/>
<path d="M30.1099 155.683H21.4214V140.346H30.1099V142.623H24.1392V146.554H29.7247V148.831H24.1392V153.384H30.1099V155.683Z"/>
<path d="M40.2883 142.43C39.5892 142.43 38.9615 142.559 38.4051 142.816C37.8629 143.074 37.3992 143.446 37.014 143.933C36.6431 144.42 36.3578 145.014 36.158 145.716C35.9726 146.403 35.8798 147.177 35.8798 148.036C35.8798 149.196 36.0368 150.191 36.3506 151.022C36.6645 151.852 37.1496 152.489 37.8058 152.933C38.4621 153.377 39.2896 153.599 40.2883 153.599C40.9303 153.599 41.558 153.535 42.1715 153.406C42.785 153.263 43.4199 153.084 44.0761 152.869V155.167C43.4484 155.425 42.8135 155.611 42.1715 155.726C41.5438 155.84 40.8162 155.898 39.9887 155.898C38.4193 155.898 37.121 155.575 36.0938 154.931C35.0666 154.272 34.3033 153.356 33.804 152.182C33.3046 150.993 33.055 149.604 33.055 148.014C33.055 146.855 33.2119 145.795 33.5258 144.835C33.8539 143.876 34.3176 143.045 34.9168 142.344C35.5303 141.642 36.2864 141.098 37.1852 140.711C38.0983 140.325 39.1327 140.131 40.2883 140.131C41.0587 140.131 41.8148 140.224 42.5567 140.411C43.3129 140.582 44.0191 140.826 44.6754 141.141L43.7337 143.375C43.2059 143.131 42.6495 142.917 42.0645 142.73C41.4938 142.53 40.9018 142.43 40.2883 142.43Z"/>
<path d="M53.2519 155.683H50.5554V142.644H46.147V140.346H57.6389V142.644H53.2519V155.683Z"/>
<path d="M73.6631 147.993C73.6631 149.182 73.5133 150.263 73.2137 151.236C72.9141 152.196 72.4647 153.026 71.8655 153.728C71.2805 154.43 70.5387 154.967 69.6398 155.339C68.741 155.711 67.6853 155.898 66.4726 155.898C65.2456 155.898 64.1756 155.711 63.2625 155.339C62.3637 154.952 61.6218 154.415 61.0369 153.728C60.452 153.026 60.0097 152.189 59.7101 151.215C59.4248 150.241 59.2821 149.16 59.2821 147.972C59.2821 146.382 59.5389 145 60.0525 143.826C60.5804 142.652 61.3722 141.742 62.4279 141.098C63.4979 140.439 64.8533 140.11 66.494 140.11C68.1061 140.11 69.4401 140.439 70.4958 141.098C71.5516 141.742 72.3434 142.659 72.8713 143.847C73.3992 145.022 73.6631 146.403 73.6631 147.993ZM62.1497 147.993C62.1497 149.153 62.2995 150.155 62.5991 151C62.913 151.831 63.3838 152.468 64.0116 152.912C64.6536 153.356 65.4739 153.578 66.4726 153.578C67.4998 153.578 68.3273 153.356 68.955 152.912C69.5828 152.468 70.0464 151.831 70.346 151C70.6457 150.155 70.7954 149.153 70.7954 147.993C70.7954 146.246 70.453 144.878 69.7682 143.89C69.0977 142.902 68.0063 142.408 66.494 142.408C65.481 142.408 64.6536 142.637 64.0116 143.096C63.3838 143.539 62.913 144.177 62.5991 145.007C62.2995 145.838 62.1497 146.833 62.1497 147.993Z"/>
<path d="M81.8817 140.346C83.8648 140.346 85.3057 140.761 86.2045 141.592C87.1176 142.408 87.5741 143.554 87.5741 145.029C87.5741 145.687 87.4743 146.318 87.2745 146.919C87.0748 147.506 86.7395 148.036 86.2687 148.509C85.8122 148.981 85.1987 149.353 84.4283 149.625C83.6579 149.883 82.7091 150.012 81.582 150.012H80.0626V155.683H77.3448V140.346H81.8817ZM81.7104 142.602H80.0626V147.757H81.3038C82.06 147.757 82.6949 147.671 83.2085 147.499C83.7364 147.313 84.1358 147.026 84.4069 146.64C84.678 146.253 84.8135 145.745 84.8135 145.115C84.8135 144.27 84.5638 143.64 84.0645 143.224C83.5651 142.809 82.7805 142.602 81.7104 142.602Z"/>
<path d="M104.676 147.993C104.676 149.182 104.526 150.263 104.227 151.236C103.927 152.196 103.478 153.026 102.878 153.728C102.293 154.43 101.552 154.967 100.653 155.339C99.7539 155.711 98.6982 155.898 97.4855 155.898C96.2585 155.898 95.1885 155.711 94.2755 155.339C93.3766 154.952 92.6348 154.415 92.0498 153.728C91.4649 153.026 91.0226 152.189 90.723 151.215C90.4377 150.241 90.295 149.16 90.295 147.972C90.295 146.382 90.5518 145 91.0654 143.826C91.5933 142.652 92.3851 141.742 93.4408 141.098C94.5109 140.439 95.8662 140.11 97.5069 140.11C99.1191 140.11 100.453 140.439 101.509 141.098C102.565 141.742 103.356 142.659 103.884 143.847C104.412 145.022 104.676 146.403 104.676 147.993ZM93.1626 147.993C93.1626 149.153 93.3124 150.155 93.612 151C93.9259 151.831 94.3967 152.468 95.0245 152.912C95.6665 153.356 96.4868 153.578 97.4855 153.578C98.5127 153.578 99.3402 153.356 99.9679 152.912C100.596 152.468 101.059 151.831 101.359 151C101.659 150.155 101.808 149.153 101.808 147.993C101.808 146.246 101.466 144.878 100.781 143.89C100.111 142.902 99.0192 142.408 97.5069 142.408C96.494 142.408 95.6665 142.637 95.0245 143.096C94.3967 143.539 93.9259 144.177 93.612 145.007C93.3124 145.838 93.1626 146.833 93.1626 147.993Z"/>
<path d="M111.663 147.757L106.228 140.346H109.095L114.381 147.778V140.346H116.928V147.778L122.235 140.346H125.103L119.646 147.735L125.36 155.683H122.385L116.928 147.907V155.683H114.381V147.907L108.924 155.683H105.949L111.663 147.757Z"/>
<path d="M139.103 140.346V153.363H141.093V159.979H138.482V155.683H128.553V159.979H125.92V153.363H127.097C127.554 152.532 127.982 151.63 128.381 150.656C128.795 149.683 129.166 148.652 129.494 147.563C129.837 146.461 130.129 145.308 130.372 144.105C130.614 142.902 130.8 141.649 130.928 140.346H139.103ZM133.154 142.666C133.068 143.454 132.925 144.306 132.726 145.222C132.526 146.139 132.283 147.077 131.998 148.036C131.713 148.995 131.399 149.933 131.056 150.85C130.714 151.766 130.35 152.604 129.965 153.363H136.385V142.666H133.154Z"/>
<path d="M152.657 155.683H143.968V140.346H152.657V142.623H146.686V146.554H152.272V148.831H146.686V153.384H152.657V155.683Z"/>
<path d="M168.506 155.683H165.81V148.852H159.047V155.683H156.33V140.346H159.047V146.554H165.81V140.346H168.506V155.683Z"/>
<path d="M172.912 140.346H175.395V148.165C175.395 148.523 175.388 148.917 175.373 149.346C175.359 149.776 175.345 150.205 175.331 150.635C175.316 151.05 175.302 151.415 175.288 151.73C175.273 152.046 175.259 152.267 175.245 152.396H175.309L182.906 140.346H186.095V155.683H183.634V147.929C183.634 147.542 183.641 147.119 183.655 146.661C183.67 146.203 183.684 145.759 183.698 145.329C183.727 144.9 183.748 144.528 183.762 144.213C183.791 143.883 183.812 143.654 183.826 143.525H183.741L176.122 155.683H172.912V140.346Z"/>
<path d="M199.166 155.683H190.477V140.346H199.166V142.623H193.195V146.554H198.781V148.831H193.195V153.384H199.166V155.683Z"/>
<path d="M60.7135 174.396L55.2778 166.986H58.1454L63.4313 174.418V166.986H65.978V174.418L71.2852 166.986H74.1529L68.6958 174.375L74.4097 182.323H71.435L65.978 174.547V182.323H63.4313V174.547L57.9742 182.323H54.9996L60.7135 174.396Z"/>
<path d="M85.5422 182.323H76.8537V166.986H85.5422V169.263H79.5715V173.194H85.157V175.47H79.5715V180.024H85.5422V182.323Z"/>
<path d="M95.7206 169.069C95.0215 169.069 94.3937 169.198 93.8373 169.456C93.2952 169.714 92.8315 170.086 92.4463 170.573C92.0754 171.06 91.79 171.654 91.5903 172.356C91.4048 173.043 91.3121 173.817 91.3121 174.676C91.3121 175.836 91.469 176.831 91.7829 177.661C92.0968 178.492 92.5818 179.129 93.2381 179.573C93.8944 180.017 94.7219 180.239 95.7206 180.239C96.3626 180.239 96.9903 180.175 97.6038 180.046C98.2173 179.902 98.8521 179.723 99.5084 179.509V181.807C98.8807 182.065 98.2458 182.251 97.6038 182.366C96.976 182.48 96.2484 182.537 95.421 182.537C93.8516 182.537 92.5533 182.215 91.5261 181.571C90.4989 180.912 89.7356 179.996 89.2363 178.821C88.7369 177.633 88.4873 176.244 88.4873 174.654C88.4873 173.494 88.6442 172.435 88.9581 171.475C89.2862 170.516 89.7499 169.685 90.3491 168.984C90.9626 168.282 91.7187 167.738 92.6175 167.351C93.5306 166.964 94.5649 166.771 95.7206 166.771C96.491 166.771 97.2471 166.864 97.989 167.05C98.7451 167.222 99.4514 167.466 100.108 167.781L99.166 170.015C98.6381 169.771 98.0817 169.556 97.4968 169.37C96.9261 169.17 96.334 169.069 95.7206 169.069Z"/>
<path d="M108.684 182.323H105.988V169.284H101.579V166.986H113.071V169.284H108.684V182.323Z"/>
<path d="M129.095 174.633C129.095 175.821 128.946 176.902 128.646 177.876C128.346 178.836 127.897 179.666 127.298 180.368C126.713 181.07 125.971 181.607 125.072 181.979C124.173 182.351 123.118 182.537 121.905 182.537C120.678 182.537 119.608 182.351 118.695 181.979C117.796 181.592 117.054 181.055 116.469 180.368C115.884 179.666 115.442 178.828 115.142 177.855C114.857 176.881 114.714 175.8 114.714 174.611C114.714 173.022 114.971 171.64 115.485 170.466C116.013 169.291 116.804 168.382 117.86 167.738C118.93 167.079 120.286 166.75 121.926 166.75C123.538 166.75 124.872 167.079 125.928 167.738C126.984 168.382 127.776 169.299 128.304 170.487C128.831 171.661 129.095 173.043 129.095 174.633ZM117.582 174.633C117.582 175.793 117.732 176.795 118.031 177.64C118.345 178.47 118.816 179.108 119.444 179.552C120.086 179.996 120.906 180.218 121.905 180.218C122.932 180.218 123.76 179.996 124.387 179.552C125.015 179.108 125.479 178.47 125.778 177.64C126.078 176.795 126.228 175.793 126.228 174.633C126.228 172.886 125.885 171.518 125.201 170.53C124.53 169.542 123.439 169.048 121.926 169.048C120.913 169.048 120.086 169.277 119.444 169.735C118.816 170.179 118.345 170.816 118.031 171.647C117.732 172.478 117.582 173.473 117.582 174.633Z"/>
<path d="M137.378 166.986C138.691 166.986 139.796 167.115 140.695 167.373C141.594 167.616 142.265 168.017 142.707 168.575C143.163 169.134 143.392 169.886 143.392 170.831C143.392 171.418 143.292 171.948 143.092 172.42C142.907 172.893 142.621 173.28 142.236 173.58C141.851 173.881 141.38 174.081 140.824 174.182V174.289C141.394 174.389 141.908 174.575 142.364 174.848C142.821 175.105 143.178 175.485 143.434 175.986C143.706 176.473 143.841 177.117 143.841 177.919C143.841 178.85 143.62 179.645 143.178 180.303C142.735 180.962 142.1 181.463 141.273 181.807C140.46 182.151 139.482 182.323 138.341 182.323H132.777V166.986H137.378ZM137.742 173.237C138.826 173.237 139.575 173.065 139.989 172.721C140.403 172.377 140.61 171.862 140.61 171.174C140.61 170.487 140.36 169.993 139.861 169.692C139.376 169.392 138.598 169.241 137.528 169.241H135.495V173.237H137.742ZM135.495 175.427V180.046H137.977C139.104 180.046 139.889 179.831 140.331 179.401C140.774 178.957 140.995 178.377 140.995 177.661C140.995 177.203 140.895 176.809 140.695 176.48C140.51 176.151 140.189 175.893 139.732 175.707C139.276 175.521 138.655 175.427 137.87 175.427H135.495Z"/>
</mask>
<path d="M7.68857 155.683L3.4727 143.096H3.3871C3.40137 143.382 3.42277 143.79 3.4513 144.32C3.47984 144.835 3.50124 145.394 3.5155 145.995C3.54404 146.597 3.55831 147.162 3.55831 147.692V155.683H1.11867V140.346H4.90653L8.95119 152.396H9.01539L13.2313 140.346H17.0191V155.683H14.4511V147.563C14.4511 147.077 14.4582 146.547 14.4725 145.974C14.4867 145.387 14.5081 144.835 14.5367 144.32C14.5652 143.804 14.5866 143.403 14.6009 143.117H14.5153L10.1068 155.683H7.68857Z" fill="white"/>
<path d="M30.1099 155.683H21.4214V140.346H30.1099V142.623H24.1392V146.554H29.7247V148.831H24.1392V153.384H30.1099V155.683Z" fill="white"/>
<path d="M40.2883 142.43C39.5892 142.43 38.9615 142.559 38.4051 142.816C37.8629 143.074 37.3992 143.446 37.014 143.933C36.6431 144.42 36.3578 145.014 36.158 145.716C35.9726 146.403 35.8798 147.177 35.8798 148.036C35.8798 149.196 36.0368 150.191 36.3506 151.022C36.6645 151.852 37.1496 152.489 37.8058 152.933C38.4621 153.377 39.2896 153.599 40.2883 153.599C40.9303 153.599 41.558 153.535 42.1715 153.406C42.785 153.263 43.4199 153.084 44.0761 152.869V155.167C43.4484 155.425 42.8135 155.611 42.1715 155.726C41.5438 155.84 40.8162 155.898 39.9887 155.898C38.4193 155.898 37.121 155.575 36.0938 154.931C35.0666 154.272 34.3033 153.356 33.804 152.182C33.3046 150.993 33.055 149.604 33.055 148.014C33.055 146.855 33.2119 145.795 33.5258 144.835C33.8539 143.876 34.3176 143.045 34.9168 142.344C35.5303 141.642 36.2864 141.098 37.1852 140.711C38.0983 140.325 39.1327 140.131 40.2883 140.131C41.0587 140.131 41.8148 140.224 42.5567 140.411C43.3129 140.582 44.0191 140.826 44.6754 141.141L43.7337 143.375C43.2059 143.131 42.6495 142.917 42.0645 142.73C41.4938 142.53 40.9018 142.43 40.2883 142.43Z" fill="white"/>
<path d="M53.2519 155.683H50.5554V142.644H46.147V140.346H57.6389V142.644H53.2519V155.683Z" fill="white"/>
<path d="M73.6631 147.993C73.6631 149.182 73.5133 150.263 73.2137 151.236C72.9141 152.196 72.4647 153.026 71.8655 153.728C71.2805 154.43 70.5387 154.967 69.6398 155.339C68.741 155.711 67.6853 155.898 66.4726 155.898C65.2456 155.898 64.1756 155.711 63.2625 155.339C62.3637 154.952 61.6218 154.415 61.0369 153.728C60.452 153.026 60.0097 152.189 59.7101 151.215C59.4248 150.241 59.2821 149.16 59.2821 147.972C59.2821 146.382 59.5389 145 60.0525 143.826C60.5804 142.652 61.3722 141.742 62.4279 141.098C63.4979 140.439 64.8533 140.11 66.494 140.11C68.1061 140.11 69.4401 140.439 70.4958 141.098C71.5516 141.742 72.3434 142.659 72.8713 143.847C73.3992 145.022 73.6631 146.403 73.6631 147.993ZM62.1497 147.993C62.1497 149.153 62.2995 150.155 62.5991 151C62.913 151.831 63.3838 152.468 64.0116 152.912C64.6536 153.356 65.4739 153.578 66.4726 153.578C67.4998 153.578 68.3273 153.356 68.955 152.912C69.5828 152.468 70.0464 151.831 70.346 151C70.6457 150.155 70.7954 149.153 70.7954 147.993C70.7954 146.246 70.453 144.878 69.7682 143.89C69.0977 142.902 68.0063 142.408 66.494 142.408C65.481 142.408 64.6536 142.637 64.0116 143.096C63.3838 143.539 62.913 144.177 62.5991 145.007C62.2995 145.838 62.1497 146.833 62.1497 147.993Z" fill="white"/>
<path d="M81.8817 140.346C83.8648 140.346 85.3057 140.761 86.2045 141.592C87.1176 142.408 87.5741 143.554 87.5741 145.029C87.5741 145.687 87.4743 146.318 87.2745 146.919C87.0748 147.506 86.7395 148.036 86.2687 148.509C85.8122 148.981 85.1987 149.353 84.4283 149.625C83.6579 149.883 82.7091 150.012 81.582 150.012H80.0626V155.683H77.3448V140.346H81.8817ZM81.7104 142.602H80.0626V147.757H81.3038C82.06 147.757 82.6949 147.671 83.2085 147.499C83.7364 147.313 84.1358 147.026 84.4069 146.64C84.678 146.253 84.8135 145.745 84.8135 145.115C84.8135 144.27 84.5638 143.64 84.0645 143.224C83.5651 142.809 82.7805 142.602 81.7104 142.602Z" fill="white"/>
<path d="M104.676 147.993C104.676 149.182 104.526 150.263 104.227 151.236C103.927 152.196 103.478 153.026 102.878 153.728C102.293 154.43 101.552 154.967 100.653 155.339C99.7539 155.711 98.6982 155.898 97.4855 155.898C96.2585 155.898 95.1885 155.711 94.2755 155.339C93.3766 154.952 92.6348 154.415 92.0498 153.728C91.4649 153.026 91.0226 152.189 90.723 151.215C90.4377 150.241 90.295 149.16 90.295 147.972C90.295 146.382 90.5518 145 91.0654 143.826C91.5933 142.652 92.3851 141.742 93.4408 141.098C94.5109 140.439 95.8662 140.11 97.5069 140.11C99.1191 140.11 100.453 140.439 101.509 141.098C102.565 141.742 103.356 142.659 103.884 143.847C104.412 145.022 104.676 146.403 104.676 147.993ZM93.1626 147.993C93.1626 149.153 93.3124 150.155 93.612 151C93.9259 151.831 94.3967 152.468 95.0245 152.912C95.6665 153.356 96.4868 153.578 97.4855 153.578C98.5127 153.578 99.3402 153.356 99.9679 152.912C100.596 152.468 101.059 151.831 101.359 151C101.659 150.155 101.808 149.153 101.808 147.993C101.808 146.246 101.466 144.878 100.781 143.89C100.111 142.902 99.0192 142.408 97.5069 142.408C96.494 142.408 95.6665 142.637 95.0245 143.096C94.3967 143.539 93.9259 144.177 93.612 145.007C93.3124 145.838 93.1626 146.833 93.1626 147.993Z" fill="white"/>
<path d="M111.663 147.757L106.228 140.346H109.095L114.381 147.778V140.346H116.928V147.778L122.235 140.346H125.103L119.646 147.735L125.36 155.683H122.385L116.928 147.907V155.683H114.381V147.907L108.924 155.683H105.949L111.663 147.757Z" fill="white"/>
<path d="M139.103 140.346V153.363H141.093V159.979H138.482V155.683H128.553V159.979H125.92V153.363H127.097C127.554 152.532 127.982 151.63 128.381 150.656C128.795 149.683 129.166 148.652 129.494 147.563C129.837 146.461 130.129 145.308 130.372 144.105C130.614 142.902 130.8 141.649 130.928 140.346H139.103ZM133.154 142.666C133.068 143.454 132.925 144.306 132.726 145.222C132.526 146.139 132.283 147.077 131.998 148.036C131.713 148.995 131.399 149.933 131.056 150.85C130.714 151.766 130.35 152.604 129.965 153.363H136.385V142.666H133.154Z" fill="white"/>
<path d="M152.657 155.683H143.968V140.346H152.657V142.623H146.686V146.554H152.272V148.831H146.686V153.384H152.657V155.683Z" fill="white"/>
<path d="M168.506 155.683H165.81V148.852H159.047V155.683H156.33V140.346H159.047V146.554H165.81V140.346H168.506V155.683Z" fill="white"/>
<path d="M172.912 140.346H175.395V148.165C175.395 148.523 175.388 148.917 175.373 149.346C175.359 149.776 175.345 150.205 175.331 150.635C175.316 151.05 175.302 151.415 175.288 151.73C175.273 152.046 175.259 152.267 175.245 152.396H175.309L182.906 140.346H186.095V155.683H183.634V147.929C183.634 147.542 183.641 147.119 183.655 146.661C183.67 146.203 183.684 145.759 183.698 145.329C183.727 144.9 183.748 144.528 183.762 144.213C183.791 143.883 183.812 143.654 183.826 143.525H183.741L176.122 155.683H172.912V140.346Z" fill="white"/>
<path d="M199.166 155.683H190.477V140.346H199.166V142.623H193.195V146.554H198.781V148.831H193.195V153.384H199.166V155.683Z" fill="white"/>
<path d="M60.7135 174.396L55.2778 166.986H58.1454L63.4313 174.418V166.986H65.978V174.418L71.2852 166.986H74.1529L68.6958 174.375L74.4097 182.323H71.435L65.978 174.547V182.323H63.4313V174.547L57.9742 182.323H54.9996L60.7135 174.396Z" fill="white"/>
<path d="M85.5422 182.323H76.8537V166.986H85.5422V169.263H79.5715V173.194H85.157V175.47H79.5715V180.024H85.5422V182.323Z" fill="white"/>
<path d="M95.7206 169.069C95.0215 169.069 94.3937 169.198 93.8373 169.456C93.2952 169.714 92.8315 170.086 92.4463 170.573C92.0754 171.06 91.79 171.654 91.5903 172.356C91.4048 173.043 91.3121 173.817 91.3121 174.676C91.3121 175.836 91.469 176.831 91.7829 177.661C92.0968 178.492 92.5818 179.129 93.2381 179.573C93.8944 180.017 94.7219 180.239 95.7206 180.239C96.3626 180.239 96.9903 180.175 97.6038 180.046C98.2173 179.902 98.8521 179.723 99.5084 179.509V181.807C98.8807 182.065 98.2458 182.251 97.6038 182.366C96.976 182.48 96.2484 182.537 95.421 182.537C93.8516 182.537 92.5533 182.215 91.5261 181.571C90.4989 180.912 89.7356 179.996 89.2363 178.821C88.7369 177.633 88.4873 176.244 88.4873 174.654C88.4873 173.494 88.6442 172.435 88.9581 171.475C89.2862 170.516 89.7499 169.685 90.3491 168.984C90.9626 168.282 91.7187 167.738 92.6175 167.351C93.5306 166.964 94.5649 166.771 95.7206 166.771C96.491 166.771 97.2471 166.864 97.989 167.05C98.7451 167.222 99.4514 167.466 100.108 167.781L99.166 170.015C98.6381 169.771 98.0817 169.556 97.4968 169.37C96.9261 169.17 96.334 169.069 95.7206 169.069Z" fill="white"/>
<path d="M108.684 182.323H105.988V169.284H101.579V166.986H113.071V169.284H108.684V182.323Z" fill="white"/>
<path d="M129.095 174.633C129.095 175.821 128.946 176.902 128.646 177.876C128.346 178.836 127.897 179.666 127.298 180.368C126.713 181.07 125.971 181.607 125.072 181.979C124.173 182.351 123.118 182.537 121.905 182.537C120.678 182.537 119.608 182.351 118.695 181.979C117.796 181.592 117.054 181.055 116.469 180.368C115.884 179.666 115.442 178.828 115.142 177.855C114.857 176.881 114.714 175.8 114.714 174.611C114.714 173.022 114.971 171.64 115.485 170.466C116.013 169.291 116.804 168.382 117.86 167.738C118.93 167.079 120.286 166.75 121.926 166.75C123.538 166.75 124.872 167.079 125.928 167.738C126.984 168.382 127.776 169.299 128.304 170.487C128.831 171.661 129.095 173.043 129.095 174.633ZM117.582 174.633C117.582 175.793 117.732 176.795 118.031 177.64C118.345 178.47 118.816 179.108 119.444 179.552C120.086 179.996 120.906 180.218 121.905 180.218C122.932 180.218 123.76 179.996 124.387 179.552C125.015 179.108 125.479 178.47 125.778 177.64C126.078 176.795 126.228 175.793 126.228 174.633C126.228 172.886 125.885 171.518 125.201 170.53C124.53 169.542 123.439 169.048 121.926 169.048C120.913 169.048 120.086 169.277 119.444 169.735C118.816 170.179 118.345 170.816 118.031 171.647C117.732 172.478 117.582 173.473 117.582 174.633Z" fill="white"/>
<path d="M137.378 166.986C138.691 166.986 139.796 167.115 140.695 167.373C141.594 167.616 142.265 168.017 142.707 168.575C143.163 169.134 143.392 169.886 143.392 170.831C143.392 171.418 143.292 171.948 143.092 172.42C142.907 172.893 142.621 173.28 142.236 173.58C141.851 173.881 141.38 174.081 140.824 174.182V174.289C141.394 174.389 141.908 174.575 142.364 174.848C142.821 175.105 143.178 175.485 143.434 175.986C143.706 176.473 143.841 177.117 143.841 177.919C143.841 178.85 143.62 179.645 143.178 180.303C142.735 180.962 142.1 181.463 141.273 181.807C140.46 182.151 139.482 182.323 138.341 182.323H132.777V166.986H137.378ZM137.742 173.237C138.826 173.237 139.575 173.065 139.989 172.721C140.403 172.377 140.61 171.862 140.61 171.174C140.61 170.487 140.36 169.993 139.861 169.692C139.376 169.392 138.598 169.241 137.528 169.241H135.495V173.237H137.742ZM135.495 175.427V180.046H137.977C139.104 180.046 139.889 179.831 140.331 179.401C140.774 178.957 140.995 178.377 140.995 177.661C140.995 177.203 140.895 176.809 140.695 176.48C140.51 176.151 140.189 175.893 139.732 175.707C139.276 175.521 138.655 175.427 137.87 175.427H135.495Z" fill="white"/>
<path d="M7.68857 155.683L3.4727 143.096H3.3871C3.40137 143.382 3.42277 143.79 3.4513 144.32C3.47984 144.835 3.50124 145.394 3.5155 145.995C3.54404 146.597 3.55831 147.162 3.55831 147.692V155.683H1.11867V140.346H4.90653L8.95119 152.396H9.01539L13.2313 140.346H17.0191V155.683H14.4511V147.563C14.4511 147.077 14.4582 146.547 14.4725 145.974C14.4867 145.387 14.5081 144.835 14.5367 144.32C14.5652 143.804 14.5866 143.403 14.6009 143.117H14.5153L10.1068 155.683H7.68857Z" stroke="white" stroke-width="2" mask="url(#path-8-outside-1_93_47)"/>
<path d="M30.1099 155.683H21.4214V140.346H30.1099V142.623H24.1392V146.554H29.7247V148.831H24.1392V153.384H30.1099V155.683Z" stroke="white" stroke-width="2" mask="url(#path-8-outside-1_93_47)"/>
<path d="M40.2883 142.43C39.5892 142.43 38.9615 142.559 38.4051 142.816C37.8629 143.074 37.3992 143.446 37.014 143.933C36.6431 144.42 36.3578 145.014 36.158 145.716C35.9726 146.403 35.8798 147.177 35.8798 148.036C35.8798 149.196 36.0368 150.191 36.3506 151.022C36.6645 151.852 37.1496 152.489 37.8058 152.933C38.4621 153.377 39.2896 153.599 40.2883 153.599C40.9303 153.599 41.558 153.535 42.1715 153.406C42.785 153.263 43.4199 153.084 44.0761 152.869V155.167C43.4484 155.425 42.8135 155.611 42.1715 155.726C41.5438 155.84 40.8162 155.898 39.9887 155.898C38.4193 155.898 37.121 155.575 36.0938 154.931C35.0666 154.272 34.3033 153.356 33.804 152.182C33.3046 150.993 33.055 149.604 33.055 148.014C33.055 146.855 33.2119 145.795 33.5258 144.835C33.8539 143.876 34.3176 143.045 34.9168 142.344C35.5303 141.642 36.2864 141.098 37.1852 140.711C38.0983 140.325 39.1327 140.131 40.2883 140.131C41.0587 140.131 41.8148 140.224 42.5567 140.411C43.3129 140.582 44.0191 140.826 44.6754 141.141L43.7337 143.375C43.2059 143.131 42.6495 142.917 42.0645 142.73C41.4938 142.53 40.9018 142.43 40.2883 142.43Z" stroke="white" stroke-width="2" mask="url(#path-8-outside-1_93_47)"/>
<path d="M53.2519 155.683H50.5554V142.644H46.147V140.346H57.6389V142.644H53.2519V155.683Z" stroke="white" stroke-width="2" mask="url(#path-8-outside-1_93_47)"/>
<path d="M73.6631 147.993C73.6631 149.182 73.5133 150.263 73.2137 151.236C72.9141 152.196 72.4647 153.026 71.8655 153.728C71.2805 154.43 70.5387 154.967 69.6398 155.339C68.741 155.711 67.6853 155.898 66.4726 155.898C65.2456 155.898 64.1756 155.711 63.2625 155.339C62.3637 154.952 61.6218 154.415 61.0369 153.728C60.452 153.026 60.0097 152.189 59.7101 151.215C59.4248 150.241 59.2821 149.16 59.2821 147.972C59.2821 146.382 59.5389 145 60.0525 143.826C60.5804 142.652 61.3722 141.742 62.4279 141.098C63.4979 140.439 64.8533 140.11 66.494 140.11C68.1061 140.11 69.4401 140.439 70.4958 141.098C71.5516 141.742 72.3434 142.659 72.8713 143.847C73.3992 145.022 73.6631 146.403 73.6631 147.993ZM62.1497 147.993C62.1497 149.153 62.2995 150.155 62.5991 151C62.913 151.831 63.3838 152.468 64.0116 152.912C64.6536 153.356 65.4739 153.578 66.4726 153.578C67.4998 153.578 68.3273 153.356 68.955 152.912C69.5828 152.468 70.0464 151.831 70.346 151C70.6457 150.155 70.7954 149.153 70.7954 147.993C70.7954 146.246 70.453 144.878 69.7682 143.89C69.0977 142.902 68.0063 142.408 66.494 142.408C65.481 142.408 64.6536 142.637 64.0116 143.096C63.3838 143.539 62.913 144.177 62.5991 145.007C62.2995 145.838 62.1497 146.833 62.1497 147.993Z" stroke="white" stroke-width="2" mask="url(#path-8-outside-1_93_47)"/>
<path d="M81.8817 140.346C83.8648 140.346 85.3057 140.761 86.2045 141.592C87.1176 142.408 87.5741 143.554 87.5741 145.029C87.5741 145.687 87.4743 146.318 87.2745 146.919C87.0748 147.506 86.7395 148.036 86.2687 148.509C85.8122 148.981 85.1987 149.353 84.4283 149.625C83.6579 149.883 82.7091 150.012 81.582 150.012H80.0626V155.683H77.3448V140.346H81.8817ZM81.7104 142.602H80.0626V147.757H81.3038C82.06 147.757 82.6949 147.671 83.2085 147.499C83.7364 147.313 84.1358 147.026 84.4069 146.64C84.678 146.253 84.8135 145.745 84.8135 145.115C84.8135 144.27 84.5638 143.64 84.0645 143.224C83.5651 142.809 82.7805 142.602 81.7104 142.602Z" stroke="white" stroke-width="2" mask="url(#path-8-outside-1_93_47)"/>
<path d="M104.676 147.993C104.676 149.182 104.526 150.263 104.227 151.236C103.927 152.196 103.478 153.026 102.878 153.728C102.293 154.43 101.552 154.967 100.653 155.339C99.7539 155.711 98.6982 155.898 97.4855 155.898C96.2585 155.898 95.1885 155.711 94.2755 155.339C93.3766 154.952 92.6348 154.415 92.0498 153.728C91.4649 153.026 91.0226 152.189 90.723 151.215C90.4377 150.241 90.295 149.16 90.295 147.972C90.295 146.382 90.5518 145 91.0654 143.826C91.5933 142.652 92.3851 141.742 93.4408 141.098C94.5109 140.439 95.8662 140.11 97.5069 140.11C99.1191 140.11 100.453 140.439 101.509 141.098C102.565 141.742 103.356 142.659 103.884 143.847C104.412 145.022 104.676 146.403 104.676 147.993ZM93.1626 147.993C93.1626 149.153 93.3124 150.155 93.612 151C93.9259 151.831 94.3967 152.468 95.0245 152.912C95.6665 153.356 96.4868 153.578 97.4855 153.578C98.5127 153.578 99.3402 153.356 99.9679 152.912C100.596 152.468 101.059 151.831 101.359 151C101.659 150.155 101.808 149.153 101.808 147.993C101.808 146.246 101.466 144.878 100.781 143.89C100.111 142.902 99.0192 142.408 97.5069 142.408C96.494 142.408 95.6665 142.637 95.0245 143.096C94.3967 143.539 93.9259 144.177 93.612 145.007C93.3124 145.838 93.1626 146.833 93.1626 147.993Z" stroke="white" stroke-width="2" mask="url(#path-8-outside-1_93_47)"/>
<path d="M111.663 147.757L106.228 140.346H109.095L114.381 147.778V140.346H116.928V147.778L122.235 140.346H125.103L119.646 147.735L125.36 155.683H122.385L116.928 147.907V155.683H114.381V147.907L108.924 155.683H105.949L111.663 147.757Z" stroke="white" stroke-width="2" mask="url(#path-8-outside-1_93_47)"/>
<path d="M139.103 140.346V153.363H141.093V159.979H138.482V155.683H128.553V159.979H125.92V153.363H127.097C127.554 152.532 127.982 151.63 128.381 150.656C128.795 149.683 129.166 148.652 129.494 147.563C129.837 146.461 130.129 145.308 130.372 144.105C130.614 142.902 130.8 141.649 130.928 140.346H139.103ZM133.154 142.666C133.068 143.454 132.925 144.306 132.726 145.222C132.526 146.139 132.283 147.077 131.998 148.036C131.713 148.995 131.399 149.933 131.056 150.85C130.714 151.766 130.35 152.604 129.965 153.363H136.385V142.666H133.154Z" stroke="white" stroke-width="2" mask="url(#path-8-outside-1_93_47)"/>
<path d="M152.657 155.683H143.968V140.346H152.657V142.623H146.686V146.554H152.272V148.831H146.686V153.384H152.657V155.683Z" stroke="white" stroke-width="2" mask="url(#path-8-outside-1_93_47)"/>
<path d="M168.506 155.683H165.81V148.852H159.047V155.683H156.33V140.346H159.047V146.554H165.81V140.346H168.506V155.683Z" stroke="white" stroke-width="2" mask="url(#path-8-outside-1_93_47)"/>
<path d="M172.912 140.346H175.395V148.165C175.395 148.523 175.388 148.917 175.373 149.346C175.359 149.776 175.345 150.205 175.331 150.635C175.316 151.05 175.302 151.415 175.288 151.73C175.273 152.046 175.259 152.267 175.245 152.396H175.309L182.906 140.346H186.095V155.683H183.634V147.929C183.634 147.542 183.641 147.119 183.655 146.661C183.67 146.203 183.684 145.759 183.698 145.329C183.727 144.9 183.748 144.528 183.762 144.213C183.791 143.883 183.812 143.654 183.826 143.525H183.741L176.122 155.683H172.912V140.346Z" stroke="white" stroke-width="2" mask="url(#path-8-outside-1_93_47)"/>
<path d="M199.166 155.683H190.477V140.346H199.166V142.623H193.195V146.554H198.781V148.831H193.195V153.384H199.166V155.683Z" stroke="white" stroke-width="2" mask="url(#path-8-outside-1_93_47)"/>
<path d="M60.7135 174.396L55.2778 166.986H58.1454L63.4313 174.418V166.986H65.978V174.418L71.2852 166.986H74.1529L68.6958 174.375L74.4097 182.323H71.435L65.978 174.547V182.323H63.4313V174.547L57.9742 182.323H54.9996L60.7135 174.396Z" stroke="white" stroke-width="2" mask="url(#path-8-outside-1_93_47)"/>
<path d="M85.5422 182.323H76.8537V166.986H85.5422V169.263H79.5715V173.194H85.157V175.47H79.5715V180.024H85.5422V182.323Z" stroke="white" stroke-width="2" mask="url(#path-8-outside-1_93_47)"/>
<path d="M95.7206 169.069C95.0215 169.069 94.3937 169.198 93.8373 169.456C93.2952 169.714 92.8315 170.086 92.4463 170.573C92.0754 171.06 91.79 171.654 91.5903 172.356C91.4048 173.043 91.3121 173.817 91.3121 174.676C91.3121 175.836 91.469 176.831 91.7829 177.661C92.0968 178.492 92.5818 179.129 93.2381 179.573C93.8944 180.017 94.7219 180.239 95.7206 180.239C96.3626 180.239 96.9903 180.175 97.6038 180.046C98.2173 179.902 98.8521 179.723 99.5084 179.509V181.807C98.8807 182.065 98.2458 182.251 97.6038 182.366C96.976 182.48 96.2484 182.537 95.421 182.537C93.8516 182.537 92.5533 182.215 91.5261 181.571C90.4989 180.912 89.7356 179.996 89.2363 178.821C88.7369 177.633 88.4873 176.244 88.4873 174.654C88.4873 173.494 88.6442 172.435 88.9581 171.475C89.2862 170.516 89.7499 169.685 90.3491 168.984C90.9626 168.282 91.7187 167.738 92.6175 167.351C93.5306 166.964 94.5649 166.771 95.7206 166.771C96.491 166.771 97.2471 166.864 97.989 167.05C98.7451 167.222 99.4514 167.466 100.108 167.781L99.166 170.015C98.6381 169.771 98.0817 169.556 97.4968 169.37C96.9261 169.17 96.334 169.069 95.7206 169.069Z" stroke="white" stroke-width="2" mask="url(#path-8-outside-1_93_47)"/>
<path d="M108.684 182.323H105.988V169.284H101.579V166.986H113.071V169.284H108.684V182.323Z" stroke="white" stroke-width="2" mask="url(#path-8-outside-1_93_47)"/>
<path d="M129.095 174.633C129.095 175.821 128.946 176.902 128.646 177.876C128.346 178.836 127.897 179.666 127.298 180.368C126.713 181.07 125.971 181.607 125.072 181.979C124.173 182.351 123.118 182.537 121.905 182.537C120.678 182.537 119.608 182.351 118.695 181.979C117.796 181.592 117.054 181.055 116.469 180.368C115.884 179.666 115.442 178.828 115.142 177.855C114.857 176.881 114.714 175.8 114.714 174.611C114.714 173.022 114.971 171.64 115.485 170.466C116.013 169.291 116.804 168.382 117.86 167.738C118.93 167.079 120.286 166.75 121.926 166.75C123.538 166.75 124.872 167.079 125.928 167.738C126.984 168.382 127.776 169.299 128.304 170.487C128.831 171.661 129.095 173.043 129.095 174.633ZM117.582 174.633C117.582 175.793 117.732 176.795 118.031 177.64C118.345 178.47 118.816 179.108 119.444 179.552C120.086 179.996 120.906 180.218 121.905 180.218C122.932 180.218 123.76 179.996 124.387 179.552C125.015 179.108 125.479 178.47 125.778 177.64C126.078 176.795 126.228 175.793 126.228 174.633C126.228 172.886 125.885 171.518 125.201 170.53C124.53 169.542 123.439 169.048 121.926 169.048C120.913 169.048 120.086 169.277 119.444 169.735C118.816 170.179 118.345 170.816 118.031 171.647C117.732 172.478 117.582 173.473 117.582 174.633Z" stroke="white" stroke-width="2" mask="url(#path-8-outside-1_93_47)"/>
<path d="M137.378 166.986C138.691 166.986 139.796 167.115 140.695 167.373C141.594 167.616 142.265 168.017 142.707 168.575C143.163 169.134 143.392 169.886 143.392 170.831C143.392 171.418 143.292 171.948 143.092 172.42C142.907 172.893 142.621 173.28 142.236 173.58C141.851 173.881 141.38 174.081 140.824 174.182V174.289C141.394 174.389 141.908 174.575 142.364 174.848C142.821 175.105 143.178 175.485 143.434 175.986C143.706 176.473 143.841 177.117 143.841 177.919C143.841 178.85 143.62 179.645 143.178 180.303C142.735 180.962 142.1 181.463 141.273 181.807C140.46 182.151 139.482 182.323 138.341 182.323H132.777V166.986H137.378ZM137.742 173.237C138.826 173.237 139.575 173.065 139.989 172.721C140.403 172.377 140.61 171.862 140.61 171.174C140.61 170.487 140.36 169.993 139.861 169.692C139.376 169.392 138.598 169.241 137.528 169.241H135.495V173.237H137.742ZM135.495 175.427V180.046H137.977C139.104 180.046 139.889 179.831 140.331 179.401C140.774 178.957 140.995 178.377 140.995 177.661C140.995 177.203 140.895 176.809 140.695 176.48C140.51 176.151 140.189 175.893 139.732 175.707C139.276 175.521 138.655 175.427 137.87 175.427H135.495Z" stroke="white" stroke-width="2" mask="url(#path-8-outside-1_93_47)"/>
<line y1="132.488" x2="200" y2="132.488" stroke="white"/>
</svg>
