<svg width="39" height="26" viewBox="0 0 39 26" fill="none" xmlns="http://www.w3.org/2000/svg">
<path fill-rule="evenodd" clip-rule="evenodd" d="M0.692823 17.3105C1.31191 16.7019 3.21255 16.6049 14.5383 16.6049L27.0779 16.5948C27.0779 16.5948 28.6989 16.3305 29.3816 15.622C30.3318 14.636 30.1255 11.9939 28.7348 10.5377C27.703 9.45705 27.4633 9.41842 21.7806 9.41842C15.4802 9.41842 14.1288 9.07437 14.1288 7.47134C14.1288 5.57277 14.8469 5.37604 21.776 5.37604C28.9777 5.37604 30.0209 5.64912 32.0964 8.07545C34.5984 11.0008 34.5984 15.0225 32.0964 17.9479C29.8141 20.6163 29.6142 20.6473 14.6994 20.6473C4.70867 20.6473 0.92521 20.5035 0.523442 20.1083C-0.234894 19.3622 -0.161389 18.1513 0.692823 17.3105ZM14.1246 11.2173C15.0323 10.7394 24.8135 10.6352 26.8022 11.0825C28.1171 11.3781 28.6677 13.2735 27.7122 14.214C27.1574 14.7598 25.7608 14.8797 20.5082 14.8343C16.9242 14.8033 13.8174 14.6717 13.6037 14.5419C12.8262 14.069 13.196 11.706 14.1246 11.2173ZM15.1587 22.5346C15.4751 22.2764 18.597 22.0001 22.1212 21.9184C29.5489 21.7459 31.2546 21.1584 33.5323 17.986C34.7312 16.3165 34.902 15.6958 34.902 13.0117C34.902 10.3298 34.7289 9.70049 33.5236 7.9973C31.4203 5.0248 29.4786 4.28145 23.3461 4.10134C18.4021 3.95626 18.1606 3.90371 17.6807 2.86841C17.2703 1.98223 17.337 1.61527 18.0483 0.842277C18.855 -0.0344716 19.2915 -0.0897173 24.1702 0.0710798C30.1775 0.269606 32.3982 1.01026 35.248 3.76672C38.1723 6.59549 39 8.63465 39 13.0117C39 17.39 38.2211 19.3097 35.2786 22.1865C32.2416 25.1559 30.3136 25.7461 22.9791 25.9527C18.682 26.0735 16.2106 25.963 15.5601 25.6208C14.4771 25.0503 14.247 23.2793 15.1587 22.5346Z" fill="#009DE0"/>
</svg>
