<svg width="39" height="35" viewBox="0 0 39 35" fill="none" xmlns="http://www.w3.org/2000/svg">
<path d="M23.8628 34.9176C34.8958 35.0919 36.5791 35.0255 37.722 34.3674C39.1281 33.5584 39.4219 32.221 38.3634 31.4496C37.951 31.1489 32.8534 30.9145 24.7633 30.8249C24.7633 30.8249 19.6264 31.0191 16.3615 30.6779C13.6215 30.3916 11.2025 30.3612 9.41248 29.437C7.62244 28.5127 6.65514 27.5812 5.65624 25.8206C4.1895 23.2359 4.03563 22.0137 4.85164 19.4331C5.97696 15.8741 10.129 13.192 14.5432 13.172L16.7452 13.162V7.27864C16.7452 2.53745 16.5871 1.25692 15.9312 0.680366C15.0033 -0.134179 14.235 -0.208352 13.1184 0.40961C12.5553 0.721325 12.2698 1.98545 12.0823 5.00563L11.8232 9.1721L9.1441 10.0476C3.59369 11.8619 0.0260536 16.4466 0.000144124 21.7966C-0.0252389 27.1608 3.22998 31.5375 8.91044 33.7754C11.0652 34.6245 12.563 34.7388 23.8628 34.9176Z" fill="#009DE0"/>
<path d="M20.0786 24.0833C25.4508 24.0833 26.1824 23.9854 27.145 23.1399C28.1118 22.2908 28.1444 22.097 27.4714 21.206C26.7782 20.2872 26.2445 20.2062 20.1227 20.0874C13.0599 19.9509 12.0823 20.1926 12.0823 22.0751C12.0823 23.7101 13.5682 24.0833 20.0786 24.0833Z" fill="#009DE0"/>
<path d="M19.5978 18.1676C25.1669 18.1676 26.0896 18.062 26.5476 17.3712C27.3745 16.1239 27.2082 15.5164 25.8192 14.7169C23.7815 13.5447 13.1293 13.9734 10.1461 15.3481C7.12921 16.7383 5.66972 19.277 5.98213 22.5889C6.22667 25.1772 7.25096 26.7772 9.68914 28.378C10.9103 29.1798 12.0315 29.3387 17.4021 29.4702C22.952 29.6062 23.7654 29.5298 24.3607 28.8144C25.2493 27.7473 25.2114 27.0338 24.2208 26.1633C23.5846 25.605 22.2246 25.4484 18.0036 25.4484C13.291 25.4484 12.4677 25.3319 11.5642 24.5383C9.87308 23.053 10.014 20.6663 11.8807 19.1914C13.077 18.2458 13.6676 18.1676 19.5978 18.1676Z" fill="#009DE0"/>
</svg>
