<svg width="14" height="16" viewBox="0 0 14 16" fill="none" xmlns="http://www.w3.org/2000/svg">
<path fill-rule="evenodd" clip-rule="evenodd" d="M4.3445 0.468629C4.63622 0.168571 5.03189 0 5.44444 0H8.55556C8.96811 0 9.36378 0.168571 9.6555 0.468629C9.94722 0.768687 10.1111 1.17565 10.1111 1.6V3.2H12.4353C12.4408 3.19994 12.4463 3.19994 12.4518 3.2H13.2222C13.6518 3.2 14 3.55817 14 4C14 4.44183 13.6518 4.8 13.2222 4.8H13.1601L12.4442 13.6366C12.4349 14.2599 12.1902 14.8556 11.761 15.2971C11.3234 15.7471 10.73 16 10.1111 16H3.88889C3.27005 16 2.67656 15.7471 2.23897 15.2971C1.80979 14.8556 1.56506 14.2599 1.55583 13.6366L0.839897 4.8H0.777778C0.348223 4.8 0 4.44183 0 4C0 3.55817 0.348223 3.2 0.777778 3.2H1.5482C1.55369 3.19994 1.55918 3.19994 1.56465 3.2H3.88889V1.6C3.88889 1.17565 4.05278 0.768687 4.3445 0.468629ZM2.40084 4.8L3.10842 13.5336C3.11021 13.5557 3.11111 13.5778 3.11111 13.6C3.11111 13.8122 3.19306 14.0157 3.33892 14.1657C3.48478 14.3157 3.68261 14.4 3.88889 14.4H10.1111C10.3174 14.4 10.5152 14.3157 10.6611 14.1657C10.8069 14.0157 10.8889 13.8122 10.8889 13.6C10.8889 13.5778 10.8898 13.5557 10.8916 13.5336L11.5992 4.8H2.40084ZM8.55556 3.2H5.44444V1.6H8.55556V3.2ZM5.44444 6.4C5.874 6.4 6.22222 6.75817 6.22222 7.2V12C6.22222 12.4418 5.874 12.8 5.44444 12.8C5.01489 12.8 4.66667 12.4418 4.66667 12V7.2C4.66667 6.75817 5.01489 6.4 5.44444 6.4ZM8.55556 6.4C8.98511 6.4 9.33333 6.75817 9.33333 7.2V12C9.33333 12.4418 8.98511 12.8 8.55556 12.8C8.126 12.8 7.77778 12.4418 7.77778 12V7.2C7.77778 6.75817 8.126 6.4 8.55556 6.4Z" fill="#EB5656"/>
</svg>
