<svg width="107" height="40" viewBox="0 0 107 40" fill="none" xmlns="http://www.w3.org/2000/svg">
<path d="M38.6839 11.0495C38.4252 11.0512 38.2133 10.9589 38.2133 10.8444C38.2133 10.5834 38.4352 10.5834 38.8407 10.8444C39.0944 11.0077 39.0643 11.0468 38.6839 11.0495Z" fill="black"/>
<path fill-rule="evenodd" clip-rule="evenodd" d="M30.824 4.31743C30.5289 4.61115 30.7059 5.42168 31.19 5.99473C31.468 6.32386 32.3971 6.90984 33.2546 7.29708C34.7817 7.98637 34.821 8.02345 35.1577 9.08728C35.4015 9.85782 35.7824 10.4378 36.4673 11.0818C37.8467 12.379 37.9423 12.4902 38.7719 13.7607C39.1835 14.3908 39.6862 15.479 39.8891 16.1787C40.468 18.1745 41.7265 20.2183 42.3769 20.2183C42.5854 20.2183 43.3442 20.8471 44.0632 21.6158C45.2941 22.9319 45.387 22.9902 45.6608 22.6176C45.8205 22.3999 45.9512 22.1116 45.9512 21.977C45.9512 21.7081 44.1245 20.2183 43.7949 20.2183C43.3176 20.2183 41.7171 18.6451 41.2397 17.7065C40.5866 16.4229 40.5876 16.2185 41.2458 16.3831C41.9204 16.5518 41.9064 16.356 41.1935 15.6486C40.877 15.3347 40.0763 14.3133 39.4137 13.3791C38.7171 12.3967 37.8572 11.4589 37.3747 11.1556C36.4367 10.5657 36.3525 10.3342 36.9585 10.0111C37.1886 9.88844 37.3768 9.65075 37.3768 9.48306C37.3768 9.13519 37.0474 9.07437 36.854 9.38621C36.6521 9.71138 35.9716 9.63075 35.8307 9.26496C35.614 8.70295 35.6904 8.12844 35.9972 8.01116C36.4727 7.82931 37.93 8.69379 38.6477 9.58326C39.0137 10.037 39.6906 10.6569 40.152 10.961C40.6133 11.2651 41.609 12.0869 42.365 12.7873L43.7392 14.0607L43.9074 13.2543C44.1 12.3306 44.0755 12.2888 43.1702 11.9973C42.2063 11.687 42.3447 11.2741 43.5454 10.8773C44.2048 10.6594 44.6159 10.3955 44.6596 10.1622C44.723 9.8249 44.6534 9.83178 43.8651 10.2411C43.0104 10.6848 42.993 10.6854 42.2573 10.2984C41.3449 9.81824 41.1757 9.45516 41.6897 9.08083C42.2324 8.68546 41.883 8.42153 41.2581 8.75482C40.3749 9.22539 38.9204 8.92085 38.037 8.08032C36.8985 6.9967 36.4198 6.79942 35.6755 7.10647C35.1516 7.3227 34.9318 7.30167 34.2256 6.96775C33.4625 6.60675 32.9436 5.81663 33.2619 5.4998C33.3267 5.43501 34.0204 5.58583 34.8032 5.83455C35.586 6.08327 36.9324 6.36636 37.7951 6.46322C38.6577 6.5603 40.1164 6.83629 41.0366 7.07668C41.9568 7.31707 43.2743 7.57142 43.9645 7.64162C45.5905 7.80702 46.0893 8.13552 46.3764 9.22935C46.5044 9.71659 46.7924 10.6309 47.0164 11.261C47.2405 11.8911 47.6469 13.5101 47.9196 14.8589C48.3136 16.8082 48.5593 17.5227 49.1177 18.3426C49.8258 19.3825 50.343 19.6769 50.343 19.0401C50.343 18.8505 50.1281 18.4051 49.8654 18.0506C49.1171 17.0407 48.881 16.3475 48.4443 13.8769C48.2205 12.61 47.9041 11.2454 47.7414 10.8444C47.5785 10.4434 47.2508 9.44578 47.0128 8.62776C46.7537 7.7362 46.4427 7.08752 46.2367 7.00878C46.0479 6.93649 44.8441 6.79213 43.5619 6.68819C42.1732 6.57549 40.8108 6.33532 40.1924 6.09431C39.6216 5.87205 38.4084 5.62165 37.4968 5.53791C36.585 5.45438 34.9381 5.11525 33.837 4.78466C31.8159 4.17765 31.079 4.0633 30.824 4.31743ZM31.9542 6.01411C31.7323 5.87621 31.4521 5.54729 31.3314 5.28336C31.0852 4.7453 31.2824 4.66155 31.9531 5.01901C32.1857 5.14296 32.3576 5.45376 32.3576 5.74997C32.3576 6.20659 32.3118 6.23658 31.9542 6.01411ZM41.8125 11.13C41.5632 11.2833 40.4113 10.6719 39.8717 10.0999C39.255 9.44579 39.6704 9.45349 40.7229 10.1153C41.1784 10.4017 41.6471 10.6361 41.7644 10.6361C42.0162 10.6361 42.0501 10.9835 41.8125 11.13Z" fill="black"/>
<path fill-rule="evenodd" clip-rule="evenodd" d="M85.5012 0.493942C86.0349 0.470057 86.8002 0.358526 87.2017 0.245715C88.7952 -0.201264 90.2155 -0.0417489 91.7058 0.751553C92.478 1.16249 93.4963 1.64018 93.9687 1.81334C94.5422 2.02318 95.4149 2.77213 96.5932 4.06487C97.5643 5.13028 98.669 6.1426 99.0484 6.31449C99.4276 6.48637 101.587 7.41381 101.954 7.90898C102.84 9.10448 103.148 10.9596 103.366 11.0935C103.462 11.1521 103.938 11.7279 104.424 12.373C104.91 13.0181 105.533 13.6666 105.808 13.8142C106.467 14.1684 106.443 14.5073 105.76 14.4987C104.975 14.4891 104.48 14.0948 103.378 12.6003C102.843 11.8748 102.194 11.0828 101.936 10.8404C101.679 10.5981 101.06 9.78838 100.561 9.04135C99.4417 7.36412 99.1494 7.12889 97.5475 6.61581C96.3775 6.24112 95.3624 5.75874 91.4162 3.70213C90.6554 3.30548 89.6937 2.85615 89.2793 2.70346C88.5104 2.42026 87.0012 2.47699 87.1304 2.78429C87.1696 2.87769 87.9803 3.46584 88.932 4.09152C92.9801 6.75271 94.2864 7.65243 94.7235 8.08043C94.9786 8.33014 95.4583 8.53445 95.79 8.53445C96.3537 8.53445 96.3841 8.59032 96.261 9.39535C96.1884 9.86898 95.8455 10.5823 95.4987 10.9807C94.6726 11.9294 94.6724 12.3214 95.4979 11.8473C96.3598 11.3526 96.6129 11.6637 95.7805 12.1949C95.0569 12.6568 94.9116 13.0128 95.4471 13.0128C95.8569 13.0128 96.4276 13.576 96.158 13.714C95.723 13.9366 92.4043 12.8733 91.8248 12.3257C90.8717 11.4251 89.4727 10.5623 88.9244 10.5371C88.6462 10.5243 88.2412 10.4467 88.0241 10.3648C87.7671 10.2678 87.5749 10.3411 87.4724 10.5753C87.2633 11.0523 88.0149 11.5494 88.7287 11.4068C89.2243 11.3076 89.2515 11.3394 88.9879 11.7092C88.7436 12.0519 88.7944 12.2935 89.2861 13.1264C90.0109 14.3543 92.3887 15.8158 94.3467 16.2367C95.257 16.4325 95.708 16.6494 95.8406 16.9554C96.1831 17.7442 97.3808 18.0882 100.651 18.3366C103.211 18.5313 103.767 18.7704 103.315 19.4818C103.154 19.7358 103.001 19.9772 102.977 20.0181C102.952 20.0593 102.492 19.7831 101.954 19.4042C101.245 18.9047 100.823 18.7506 100.419 18.8431C100.112 18.9135 99.0993 18.8606 98.1674 18.7256C96.7691 18.5234 96.1512 18.2876 94.6329 17.3764C93.621 16.7692 92.5206 16.1992 92.1877 16.1096C90.8885 15.7601 89.2783 14.4226 88.0577 12.6788C87.3862 11.7192 86.8367 10.8216 86.8367 10.6843C86.8367 10.5467 87.1083 10.1965 87.44 9.90567C87.8842 9.51648 88.2001 9.41156 88.6382 9.50795C89.223 9.63654 89.2362 9.60925 89.4056 7.90898C89.5003 6.95766 89.6728 6.12767 89.7891 6.06476C90.2168 5.83317 89.9697 5.5425 88.6012 4.6671C86.642 3.41381 84.3554 1.33714 84.4518 0.898269C84.508 0.640659 84.8083 0.525077 85.5012 0.493942ZM86.9584 0.857328C86.6906 0.958196 86.1705 1.04733 85.8023 1.05565C85.0987 1.07143 84.9229 1.354 85.4372 1.64253C85.6047 1.73636 86.6176 1.86687 87.6885 1.93233C89.4248 2.03875 89.777 2.13706 90.9406 2.84058C91.6583 3.27455 92.3753 3.62962 92.5338 3.62962C92.6922 3.62962 93.6212 4.06146 94.5984 4.58926C95.5753 5.11706 96.48 5.5489 96.6085 5.5489C96.9256 5.5489 95.0557 3.28458 94.3433 2.80604C94.0296 2.59534 92.9383 2.02254 91.9178 1.53355C90.3652 0.789298 89.8488 0.646422 88.7538 0.659004C88.0341 0.66732 87.2261 0.756459 86.9584 0.857328ZM90.0006 8.60099C90.0006 7.84522 90.1141 7.04125 90.2526 6.81435C90.3913 6.58745 90.6376 6.40191 90.8002 6.40191C91.2779 6.40191 93.9113 8.12521 93.7604 8.3391C93.5375 8.65515 92.9139 8.56538 92.0373 8.09046C91.1319 7.6004 91.0131 7.78272 91.5953 8.76902C92.0387 9.52052 91.8757 10.1641 91.1935 10.3537C90.3387 10.5915 90.0006 10.0946 90.0006 8.60099ZM93.6514 9.11705C92.8017 9.25396 92.4345 9.56852 92.4345 10.1599C92.4345 10.9101 92.9814 10.7779 93.8656 9.81397C94.2959 9.34481 94.5607 8.97396 94.4538 8.98995C94.3472 9.00595 93.986 9.0631 93.6514 9.11705ZM93.887 12.2286C93.8996 12.8562 93.1588 12.5579 92.7896 11.7866C92.496 11.1732 92.5026 11.0935 92.8453 11.0935C93.3189 11.0935 93.8765 11.7013 93.887 12.2286Z" fill="black"/>
<path d="M77.187 38.6475C75.3963 38.6475 74.501 37.9375 74.501 36.5176C74.501 35.6349 74.7802 35.088 75.3385 34.8769C75.8969 34.6659 76.5034 34.5219 77.1581 34.4452C78.1786 34.3493 78.9776 33.9367 79.5553 33.2075C80.1329 32.4592 80.5083 31.7972 80.6816 31.2215L82.3279 25.1196C82.5397 24.3712 84.0082 21.6691 84.4703 20.844C84.9324 19.9997 87.1498 18.4663 88.3516 17.8178C89.7701 17.8178 89.4231 17.4346 92.5808 17.4346H100.697V4.71081V1.16406H105V36.2585C105 37.8512 104.287 38.6475 102.863 38.6475C101.419 38.6475 100.697 37.8512 100.697 36.2585V21.6656H92.7252C90.9923 21.6656 89.6349 21.9823 88.6529 22.6155C87.671 23.2487 86.9778 24.3041 86.5735 25.7816L85.1005 31.3367C84.5036 33.6009 83.4639 35.3854 81.9813 36.6903C80.4987 37.9951 78.9006 38.6475 77.187 38.6475Z" fill="black"/>
<path d="M35.5731 36.785C34.6142 36.785 33.9168 36.6029 33.4809 36.2387C33.0451 35.8918 32.8271 35.3976 32.8271 34.7559C32.8271 34.1316 32.9841 33.7068 33.2979 33.4813C33.6117 33.2385 33.9604 33.1084 34.344 33.0911C34.7275 33.0564 35.0152 33.0131 35.207 32.961C35.6603 32.8743 36.0351 32.5448 36.3315 31.9726C36.6453 31.3829 36.9156 30.6892 37.1422 29.8915C37.3689 29.0764 37.5781 28.296 37.7699 27.5503C38.2057 26.0416 38.9467 24.5588 39.9928 23.1021C41.0389 21.628 46.5569 19.1481 48.2307 18.4198C48.5968 18.7146 48.9629 18.862 49.329 18.862H49.9044V6.53184C49.9044 5.83816 50.0787 5.28322 50.4274 4.86701C50.7935 4.4508 51.2992 4.2427 51.9442 4.2427C53.2518 4.2427 53.9056 5.00575 53.9056 6.53184V18.862H54.481C54.9343 18.862 55.4224 18.5672 55.9455 17.9776C56.486 17.3706 57.0264 16.6336 57.5669 15.7665C58.1074 14.882 58.6217 14.0409 59.1099 13.2432C59.6852 12.2547 60.3216 11.2402 61.019 10.1997C61.7164 9.14181 62.4573 8.16199 63.2419 7.2602C64.0439 6.34108 64.8895 5.60405 65.7786 5.0491C66.6678 4.47682 67.6093 4.19067 68.603 4.19067C69.3179 4.19067 69.8932 4.36409 70.3291 4.71093C70.7824 5.05777 71.009 5.56069 71.009 6.21969C71.009 6.87868 70.7824 7.31223 70.3291 7.52034C69.8932 7.7111 69.3091 7.87585 68.5769 8.01458C67.4611 8.24003 66.4847 9.01175 65.6479 10.3297C64.811 11.6304 63.8347 13.2692 62.7188 15.2462C62.004 16.4775 61.4374 17.4053 61.019 18.0296C60.6005 18.6366 60.1559 19.2262 59.6852 19.7985C61.1672 20.4748 62.3527 21.3159 63.2419 22.3217C64.1311 23.3276 64.8372 24.4548 65.3602 25.7034C65.8832 26.9347 66.3278 28.2267 66.6939 29.5794C66.8857 30.3424 67.0514 30.958 67.1908 31.4263C67.3477 31.8945 67.5221 32.25 67.7139 32.4928C67.9231 32.7356 68.2195 32.8917 68.603 32.961C68.9169 33.0304 69.2568 33.0998 69.623 33.1691C70.0065 33.2385 70.3291 33.3946 70.5906 33.6374C70.8695 33.8802 71.009 34.279 71.009 34.834C71.009 36.1346 70.146 36.785 68.42 36.785C66.8509 36.785 65.552 36.3081 64.5233 35.3542C63.5121 34.3831 62.7711 33.1345 62.3004 31.6084C61.7425 29.8568 61.1933 28.3134 60.6528 26.9781C60.1298 25.6254 59.4063 24.5762 58.4822 23.8305C57.5582 23.0674 56.2419 22.6859 54.5333 22.6859H53.9056V34.6259C53.9056 35.2675 53.7139 35.7878 53.3303 36.1867C52.9642 36.5855 52.476 36.785 51.8658 36.785C51.273 36.785 50.7935 36.5855 50.4274 36.1867C50.0787 35.7878 49.9044 35.2675 49.9044 34.6259V22.6859H49.2767C48.0737 22.6859 47.0451 22.9114 46.1908 23.3622C45.3539 23.8131 44.6566 24.4288 44.0986 25.2092C43.5407 25.9722 43.07 26.8567 42.6864 27.8625C42.3029 28.903 41.9455 29.9522 41.6142 31.0101C41.2829 32.0506 40.882 33.0131 40.4112 33.8975C39.9579 34.7646 39.3477 35.467 38.5806 36.0046C37.8135 36.5248 36.811 36.785 35.5731 36.785Z" fill="black"/>
<path d="M10.2441 38.0121L15.5749 22.0252V17.9429L15.2401 14.37L13.473 6.33844C17.7154 6.33844 25.2478 5.96319 27.1621 7.22058C29.0764 8.46076 30.0335 10.5363 30.0335 13.4473C30.0335 16.2205 29.2143 18.3477 27.576 19.829C25.9377 21.2931 23.5233 22.0252 20.3328 22.0252H15.5749L10.2441 38.0121C11.5031 38.0121 10.2441 39.4417 10.2441 38.0121ZM15.5749 17.9429L17.9271 18.2271C19.8758 18.2271 21.4624 18.1324 22.6869 17.9429C23.9113 17.7534 24.8081 17.3314 25.3772 16.6769C25.9463 16.0224 26.2308 14.9975 26.2308 13.6023C26.2308 12.3966 25.9894 11.4751 25.5065 10.8378C25.0237 10.2004 24.1786 9.76122 22.9714 9.52007C21.7642 9.2617 20.0828 9.13252 17.9271 9.13252H14.0877L15.0712 13.6023L15.5749 17.9429Z" fill="black"/>
<path d="M5.16337 25.455C4.45548 25.455 5.34043 24.995 6.94867 24.5265C9.02854 23.9211 8.81715 23.9285 9.49455 24.4356C10.2554 25.0055 9.84775 25.3583 8.96725 24.8918C8.39436 24.5886 8.02666 24.6056 6.88502 24.9891C6.12235 25.2455 5.34782 25.455 5.16337 25.455Z" fill="black"/>
<path fill-rule="evenodd" clip-rule="evenodd" d="M4.31189 7.42363C4.53631 6.43127 4.9058 5.66743 5.28979 5.4011C6.25941 4.72898 6.93241 5.28361 7.13729 6.92407C7.37355 8.81563 8.16609 12.2762 8.50775 12.9079C8.7372 13.3321 8.92817 13.3705 9.58396 13.1238C10.0224 12.9588 10.7055 12.9043 11.1013 13.0028C11.8077 13.178 11.8178 13.1546 11.6265 11.7737C11.1454 8.30261 11.0797 6.49163 11.4133 5.87518C11.8749 5.0211 13.0731 5.04189 13.6501 5.91325C14.4886 7.17956 15.325 10.0691 15.6039 12.6617C15.757 14.0857 16.1418 16.2612 16.4592 17.4961C16.9243 19.3068 17.0461 20.8764 17.0866 25.6015C17.1361 31.3541 17.1221 31.4988 16.3248 33.5122C15.8778 34.6403 15.4698 36.138 15.418 36.8403C15.3659 37.5429 15.2824 38.1506 15.2323 38.1905C14.9315 38.4316 12.9209 37.9276 12.9209 37.6112C12.9209 37.4029 13.5285 36.4328 14.2713 35.4551C15.0138 34.4774 15.7466 33.2456 15.8997 32.718C16.0524 32.19 16.1777 30.0881 16.1777 28.0468V24.3357L15.0076 22.8708C14.3642 22.0653 13.5352 21.1963 13.1655 20.9402C12.3178 20.3525 11.26 20.3393 11.0373 20.9136C10.8458 21.4081 9.79653 21.5092 9.51616 21.0601C9.4155 20.8989 9.541 20.7671 9.79473 20.7671C10.3952 20.7671 10.3904 20.2948 9.78794 20.066C8.07105 19.4137 8.053 20.6308 9.7548 22.3C10.4559 22.988 11.408 23.8019 11.8705 24.1093C12.629 24.6132 12.6628 24.7029 12.2175 25.0251C11.8205 25.3123 11.7829 25.5373 12.0262 26.1705C12.4443 27.2586 12.4052 27.5976 11.8847 27.3999C11.5827 27.2853 11.4406 27.4157 11.4406 27.808C11.4406 28.1602 11.2387 28.3869 10.9225 28.3902C10.1361 28.3981 8.47224 30.5779 8.0844 32.1085C7.89491 32.8556 7.55471 33.5275 7.32822 33.601C6.57058 33.8474 7.08069 30.9067 7.96267 29.9445C10.3691 27.3181 11.4406 25.9697 11.4406 25.5666C11.4406 25.3167 10.9654 24.6955 10.3845 24.1869C7.95381 22.0571 7.81937 21.7129 7.71308 17.3587C7.66068 15.1967 7.55266 13.3239 7.47361 13.197C7.31463 12.9427 6.38553 7.42364 6.44208 7.07088C6.54008 6.4594 6.37517 5.82448 6.11818 5.82448C5.95919 5.82448 5.61635 6.14561 5.3564 6.53822C4.98632 7.09725 4.89634 7.93989 4.94223 10.4204C4.9742 12.1631 4.98752 13.9741 4.97183 14.4449C4.95584 14.9157 5.14533 16.27 5.39254 17.4545C5.84997 19.6464 5.79104 20.1811 5.09232 20.1811C4.58634 20.1811 4.21003 16.6532 4.30773 12.8229C4.36695 10.5071 4.29827 9.975 3.92168 9.83202C3.0915 9.51676 2.5592 10.4438 2.5515 12.2179C2.54765 13.1332 2.42326 14.3983 2.27553 15.0294C2.10736 15.7461 2.12275 17.1498 2.31579 18.7662C2.58284 21.0009 2.55978 21.4541 2.14766 22.0765C1.55582 22.9704 1.54842 24.5373 2.1139 29.2639C2.66192 33.8427 2.84933 34.475 4.16209 36.1764C5.3659 37.7369 5.48461 38.1752 4.63105 37.9071C4.11442 37.7448 4.03892 37.8544 4.03892 38.7665C4.03892 39.3413 3.91872 39.8116 3.77187 39.8116C3.42222 39.8116 2.85465 38.1814 2.85465 37.1767C2.85465 36.7428 2.59174 35.6309 2.27021 34.7062C1.94868 33.7815 1.54692 31.6766 1.37757 30.0288C1.20822 28.3814 0.954472 26.6357 0.81384 26.15C0.55863 25.2698 0.844346 22.5505 1.2621 21.8816C1.38319 21.688 1.52825 19.2177 1.5848 16.3918C1.69671 10.8112 2.06209 9.28501 3.32896 9.10599C3.81925 9.03655 4.02796 8.67969 4.31189 7.42363ZM9.12594 13.9067C8.51427 14.3306 8.47192 14.5275 8.63772 16.1774C8.85888 18.3815 9.23457 19.2054 10.1186 19.4249C10.4899 19.5172 11.0057 19.6734 11.265 19.7718C11.5694 19.8872 11.7367 19.7923 11.7367 19.5043C11.7367 19.2588 11.5703 19.0024 11.3666 18.9347C11.0779 18.8386 11.0859 18.7044 11.4021 18.325C12.0129 17.5931 11.7177 14.3675 10.992 13.8425C10.2797 13.3268 9.94575 13.3383 9.12594 13.9067ZM11.9854 8.68789C11.8157 8.36091 11.8773 7.81653 12.1589 7.14968C12.3987 6.58187 12.6675 6.11747 12.7563 6.11747C12.9135 6.11747 13.834 8.01723 14.2467 9.19389C14.3598 9.51618 14.6351 11.14 14.8587 12.8024C15.0822 14.4648 15.4707 16.618 15.7214 17.5872C16.2215 19.5184 16.3295 21.9391 15.9156 21.9391C15.7715 21.9391 15.4354 21.6094 15.1687 21.2066C14.8806 20.7718 14.403 20.4741 13.9927 20.4741C13.4435 20.4741 13.296 20.3091 13.2735 19.6684C13.2581 19.2254 13.1122 17.8738 12.949 16.6652C12.7862 15.4566 12.5618 13.2811 12.4502 11.8308C12.3388 10.3805 12.1296 8.96624 11.9854 8.68789Z" fill="black"/>
</svg>
