<svg width="749" height="759" viewBox="0 0 749 759" fill="none" xmlns="http://www.w3.org/2000/svg">
<path fill-rule="evenodd" clip-rule="evenodd" d="M190.167 604.611C130.989 573.866 134.584 542.94 99.2025 486.412C64.0316 430.22 86.8763 360.879 99.2025 295.745C114.717 213.765 84.8825 134.899 145.36 103.412C210.074 69.7185 294.768 48.4075 367.667 45.4119C432.2 42.76 440.848 120.026 504.167 132.766C569.888 145.988 611.485 167.497 632.167 231.265C652.266 293.238 599.981 337.02 596.947 402.241C585.39 470.72 589.063 553.119 542.462 604.611C495.529 656.471 481.951 671.825 412.82 661.193C351.624 651.781 245.11 633.155 190.167 604.611Z" fill="#009DE0"/>
</svg>
