<svg width="79" height="68" viewBox="0 0 79 68" fill="none" xmlns="http://www.w3.org/2000/svg">
<path fill-rule="evenodd" clip-rule="evenodd" d="M10.4315 0.174166C9.46851 0.364166 8.68151 1.14817 8.68151 1.91517C8.68151 2.68217 9.24451 3.09717 9.93151 2.83617C12.0905 2.01717 29.8445 4.11517 37.8105 6.13017C47.8485 8.67017 51.0655 10.7982 62.5905 22.5272C72.0075 32.1092 74.6815 33.9552 74.6815 30.8732C74.6815 30.0222 75.5785 29.3732 76.7545 29.3732C78.1775 29.3732 78.7245 28.8332 78.4965 27.6532C78.2795 26.5262 76.7065 25.6452 73.9315 25.0962C70.7425 24.4652 68.2765 22.8772 63.9395 18.6622C58.7995 13.6662 51.0695 7.72117 46.6095 5.33417C42.0935 2.91717 15.6395 -0.855834 10.4315 0.174166ZM8.68151 6.31417C8.68151 7.44617 9.13151 8.37317 9.68151 8.37317C11.9595 8.37317 10.4185 10.1042 6.66651 11.7602C1.91251 13.8572 -0.823493 18.3022 0.221507 22.2312C0.608507 23.6842 1.05651 27.9302 1.21751 31.6672C1.37851 35.4152 2.10351 39.1772 2.83451 40.0582C3.56351 40.9362 4.22351 42.9122 4.30051 44.4502C4.42551 46.9362 6.37351 52.0182 9.98451 59.2812C10.6425 60.6052 13.6565 63.0272 16.6815 64.6622L22.1815 67.6362L35.1815 67.0372C42.3315 66.7082 50.8815 65.7122 54.1815 64.8242C63.9255 62.2032 66.3165 62.0442 69.8075 63.7862C74.3855 66.0702 76.2585 64.0902 72.4315 61.0112C70.9185 59.7942 69.6815 58.0272 69.6815 57.0852C69.6815 54.8112 68.7545 54.9162 62.8985 57.8582C56.8085 60.9172 47.6825 62.5062 32.8175 63.0982C24.7755 63.4182 21.6505 63.2322 22.1265 62.4622C22.4965 61.8632 23.7165 61.3732 24.8365 61.3732C25.9565 61.3732 28.0675 60.5262 29.5275 59.4902C30.9875 58.4542 34.2555 56.6342 36.7915 55.4462C42.2645 52.8802 44.4475 49.2822 42.0105 46.8452C40.5485 45.3832 40.5935 45.1232 42.5475 43.7542C45.1955 41.9002 45.2465 38.6532 42.6815 35.3732C41.6055 33.9982 40.7155 31.6572 40.7035 30.1702C40.6755 26.7922 38.9415 22.7152 35.9705 19.0462C34.7115 17.4922 33.6815 15.1922 33.6815 13.9362C33.6815 11.9572 33.0465 11.5762 28.9315 11.0872C17.5475 9.73417 10.6815 8.13217 10.6815 6.82917C10.6815 6.09317 10.2315 5.21317 9.68151 4.87317C9.13151 4.53317 8.68151 5.18217 8.68151 6.31417ZM14.4315 12.0352C15.1195 12.3132 16.2445 12.3132 16.9315 12.0352C17.6195 11.7582 17.0565 11.5312 15.6815 11.5312C14.3065 11.5312 13.7445 11.7582 14.4315 12.0352ZM5.54451 16.1802C4.32651 17.0342 3.68151 18.7072 3.68151 21.0102C3.68151 24.1932 4.06851 24.6862 7.68151 26.1052C12.4955 27.9962 12.7765 29.1372 8.53251 29.5602C4.20451 29.9902 2.82951 32.4242 5.02351 35.7722C6.47651 37.9902 7.45251 38.3732 11.6455 38.3732C14.3505 38.3732 16.8415 38.8232 17.1815 39.3732C17.5285 39.9342 16.7415 40.3732 15.3895 40.3732C14.0645 40.3732 11.5485 40.8722 9.79851 41.4822C7.19251 42.3912 6.73051 42.9792 7.24951 44.7322C8.68751 49.5912 11.2075 49.8012 27.1815 46.3942L35.1815 44.6882L34.8525 41.4212C34.6145 39.0522 34.8895 38.2742 35.8525 38.5922C36.5835 38.8332 37.3285 40.0332 37.5085 41.2602C37.9235 44.0892 41.0585 43.7062 41.4795 40.7752C42.1665 35.9922 35.7995 34.8622 26.4545 38.1092C23.8545 39.0132 21.4055 39.4312 21.0135 39.0392C19.6815 37.7062 23.3905 35.2222 27.5435 34.6652C31.0735 34.1912 31.6815 33.7612 31.6815 31.7412C31.6815 30.4392 32.1315 29.3732 32.6815 29.3732C33.2315 29.3732 33.6815 30.4982 33.6815 31.8732C33.6815 34.7132 34.8445 35.0872 36.7065 32.8432C37.7035 31.6422 37.7205 30.7532 36.7855 28.7022C35.6205 26.1442 35.4485 26.1042 28.3885 26.7182C24.4245 27.0632 20.5065 27.4642 19.6815 27.6092C18.8565 27.7542 18.0465 27.4232 17.8815 26.8742C17.7165 26.3242 20.0675 25.3772 23.1055 24.7682C29.2955 23.5282 31.6815 22.0032 31.6815 19.2862C31.6815 16.3962 28.9585 15.6002 17.7945 15.2232C10.3735 14.9732 6.87551 15.2462 5.54451 16.1802ZM37.3485 48.0402C36.1305 49.2582 36.6595 51.3732 38.1815 51.3732C39.0145 51.3732 39.6815 50.4842 39.6815 49.3732C39.6815 47.3812 38.6155 46.7722 37.3485 48.0402ZM23.6815 49.9012C21.2065 50.6942 18.4235 51.3492 17.4965 51.3582C16.5695 51.3662 14.6315 51.8222 13.1885 52.3702C10.5895 53.3592 10.5815 53.3942 12.2885 56.2852C14.4205 59.8942 17.9515 61.7152 19.5815 60.0462C20.2125 59.4012 23.9795 57.7252 27.9545 56.3222C34.2615 54.0952 35.1815 53.4582 35.1815 51.3222C35.1815 49.2292 34.6725 48.8432 31.6815 48.6662C29.7565 48.5532 26.1565 49.1082 23.6815 49.9012Z" fill="black"/>
</svg>
