<svg width="53" height="126" viewBox="0 0 53 126" fill="none" xmlns="http://www.w3.org/2000/svg">
<path fill-rule="evenodd" clip-rule="evenodd" d="M18.2419 2.62692C16.4989 4.84192 16.1679 6.42892 16.4189 11.3459C16.6619 16.0869 16.4099 17.4009 15.2269 17.5709C6.86093 18.7699 6.22693 19.0269 6.24193 21.2139C6.25093 22.4269 6.63294 24.0109 7.09194 24.7349C8.34294 26.7079 15.2699 28.7859 18.7259 28.2249C21.4329 27.7859 21.9579 28.1309 23.4969 31.3589C24.4489 33.3539 25.2269 35.3779 25.2269 35.8559C25.2269 36.3349 23.0899 36.9459 20.4769 37.2149C15.6019 37.7169 7.89293 39.5759 5.22693 40.8939C3.30693 41.8419 0.0559254 53.0599 0.00192542 58.9189C-0.0760746 67.4899 2.21994 79.4709 6.13694 90.9189C9.91693 101.969 11.7939 105.252 15.5679 107.419C16.5279 107.97 18.5639 112.209 20.1039 116.864C23.1559 126.087 25.7479 129.03 24.6229 121.992C24.0569 118.453 24.1919 117.968 25.5959 118.507C30.5009 120.389 23.3029 109.191 17.4639 105.855C14.4899 104.156 12.2189 100.211 9.73194 92.4189C7.82394 86.4409 5.30793 76.1369 4.23892 69.9189C3.81393 67.4439 3.13993 64.0029 2.74193 62.2709C2.06793 59.3429 2.23394 59.0759 5.13094 58.4399C6.84294 58.0639 7.99994 57.3599 7.69994 56.8759C7.39194 56.3769 6.02694 56.4249 4.55294 56.9849C3.12094 57.5299 1.82493 57.8499 1.67293 57.6969C1.52093 57.5439 2.01093 55.9559 2.76293 54.1689C3.60793 52.1599 4.83893 50.9189 5.98793 50.9189C8.23093 50.9189 11.9849 48.3439 11.0729 47.4309C10.7149 47.0729 9.46393 47.3739 8.29393 48.0999C6.50593 49.2079 6.02193 49.1879 5.26593 47.9729C3.26193 44.7509 7.70994 41.0889 10.8439 43.3809C12.3709 44.4969 12.6859 46.3759 12.8559 55.3529C13.0289 64.4649 13.4109 66.6749 15.4989 70.6629C18.3349 76.0769 19.7289 76.9119 20.5839 73.7099C20.9879 72.1979 20.6409 71.0049 19.5629 70.1999C18.2229 69.1999 18.1579 68.7069 19.2009 67.4499C19.8999 66.6079 20.8119 65.9189 21.2269 65.9189C21.6429 65.9189 23.6899 65.2059 25.7759 64.3339C28.4719 63.2079 29.1859 62.5119 28.2429 61.9289C27.1679 61.2639 27.3529 59.7109 29.2159 53.7639C32.0499 44.7159 32.0719 44.5209 30.2499 44.4639C29.2229 44.4329 28.4319 42.4389 27.6549 37.9189C26.2329 29.6479 23.6469 21.0239 20.6499 14.5549C19.1529 11.3239 18.5139 8.56092 18.8919 6.94992C19.8329 2.93392 20.8429 2.57692 22.1739 5.79191C22.8539 7.43291 24.0679 9.02792 24.8709 9.33592C26.6109 10.0029 33.8979 25.2999 39.3919 39.8149C46.1349 57.6319 48.9489 75.4429 47.3219 90.0139C46.5029 97.3499 46.6499 100.222 48.2409 107.985C49.2819 113.068 50.5969 117.689 51.1639 118.256C53.2749 120.367 53.5379 117.682 51.9069 110.656C50.5849 104.96 50.2589 98.9489 50.3759 82.4189C50.4569 70.8689 50.8449 60.2869 51.2379 58.9029C51.9589 56.3659 45.3469 26.8799 43.1259 22.7299C42.5379 21.6309 40.0429 19.8399 37.5819 18.7519C32.9709 16.7119 31.2369 14.5699 26.5879 5.16892C23.6119 -0.850084 21.4859 -1.49708 18.2419 2.62692ZM12.4769 20.2659C6.91393 22.0909 8.81794 24.9189 15.6089 24.9189C19.6909 24.9189 21.4869 23.2739 20.1449 20.7659C19.0649 18.7479 17.4299 18.6409 12.4769 20.2659ZM35.2269 22.2979C35.2269 22.5069 36.3009 25.0939 37.6149 28.0479C38.9279 31.0019 40.8139 35.3319 41.8069 37.6689C42.7999 40.0059 44.0229 41.9189 44.5259 41.9189C45.0289 41.9189 45.1899 41.2639 44.8819 40.4629C44.5749 39.6619 43.7819 36.1749 43.1189 32.7129C42.3009 28.4329 41.1469 25.6989 39.5149 24.1689C37.3889 22.1749 35.2269 21.2319 35.2269 22.2979ZM15.7859 40.2519C14.1759 41.4289 14.1039 42.0169 15.1719 45.2519C16.5999 49.5789 17.5919 49.8179 19.8429 46.3819L21.5059 43.8449L22.6409 46.1229C23.2659 47.3759 24.5979 48.5589 25.6019 48.7529C27.1819 49.0569 27.3299 48.6559 26.7079 45.7619C25.5099 40.1829 24.4339 38.9189 20.8829 38.9189C19.0819 38.9189 16.7889 39.5189 15.7859 40.2519ZM17.6229 60.2549C12.9299 64.2909 16.6949 66.6979 21.6299 62.8169C23.7469 61.1519 24.0609 60.4239 23.1419 59.3169C21.5589 57.4099 20.7759 57.5429 17.6229 60.2549ZM10.8739 68.6819C10.6149 69.1009 10.9739 70.5119 11.6719 71.8169C12.4719 73.3109 13.1969 73.7769 13.6309 73.0749C14.0099 72.4619 13.8329 71.0509 13.2379 69.9399C12.0669 67.7509 11.6019 67.5039 10.8739 68.6819Z" fill="black"/>
</svg>
