<svg width="89" height="110" viewBox="0 0 89 110" fill="none" xmlns="http://www.w3.org/2000/svg">
<path d="M13 6C12.45 6 12 5.55 12 5C12 4.45 12.45 4 13 4C13.55 4 14 4.45 14 5C14 5.55 13.55 6 13 6Z" fill="black"/>
<path d="M19.049 6.53C18.472 6.174 18 5.45901 18 4.94101C18 3.54801 18.894 3.77201 22.683 6.11301C27.013 8.78901 26.779 11.435 22.193 11.665C18.309 11.86 16 13.522 16 16.122C16 17.155 15.325 18 14.5 18C13.675 18 13 17.354 13 16.565C13 13.832 14.957 10 16.353 10C18.338 10 20.3899 7.359 19.049 6.53Z" fill="black"/>
<path d="M0 14.363C0 14.14 1.18493 12.167 2.63293 9.979C4.08093 7.79 5.54293 6.008 5.88293 6.017C6.22194 6.027 7.50193 7.092 8.72693 8.384L10.954 10.734L5.47693 12.752C2.46493 13.862 0 14.587 0 14.363Z" fill="black"/>
<path d="M28.059 16C26.709 16 25.773 14.177 26.51 12.984C26.856 12.425 27.557 12.226 28.069 12.543C29.284 13.293 29.276 16 28.059 16Z" fill="black"/>
<path d="M24.355 24C23.225 24 23.277 23.507 24.626 21.449C25.75 19.733 26.628 19.228 27.306 19.906C28.529 21.129 26.458 24 24.355 24Z" fill="black"/>
<path d="M18.618 25C15.931 25 14.499 23.62 15.502 21.997C15.916 21.328 16.747 21.329 18.005 22.003C21.044 23.629 21.324 25 18.618 25Z" fill="black"/>
<path fill-rule="evenodd" clip-rule="evenodd" d="M33.994 17.969C30.38 12.68 28 6.95201 28 3.54001V0H34.809C42.285 0 43.256 0.494 47.584 6.5C54.815 16.536 70.317 34.868 74.562 38.404C77.139 40.551 80.06 44.151 81.053 46.404C83.536 52.04 85.131 70.306 83.856 78.497C82.906 84.597 82.9939 85.115 85.9299 90.684C87.6159 93.883 88.9969 97.036 88.9979 97.691C89.0029 100.726 86.9129 99.539 83.8519 94.769L80.5 89.546L80.47 69.933C80.444 53.415 80.18 49.939 78.796 47.91C77.892 46.584 73.007 41.225 67.942 36C62.876 30.775 55.1599 21.775 50.7939 16C43.1679 5.912 40.4789 3.188 39.3049 4.362C39.0049 4.662 39.028 5.97501 39.356 7.28101C40.118 10.318 53.652 32.927 56.115 35.279C59.142 38.169 61.0159 42.653 60.4619 45.679C59.7699 49.463 61.295 51.83 63.335 50.137C66.404 47.59 65.922 50.949 62.593 55.311L59.173 59.791L61.9609 62.462C64.3949 64.795 64.606 65.444 63.624 67.58C62.177 70.728 59.892 70.275 58.109 66.488C57.336 64.844 55.151 61.762 53.252 59.637C49.448 55.379 46.056 48.681 46.022 45.361C45.986 41.904 42.756 38.625 40.188 39.44C37.213 40.385 37.031 45.066 40 44.29C42.856 43.543 42.477 45.462 39.5 46.818C36.124 48.356 36.32 50.7 40.522 59.043C46.148 70.215 48.208 76.044 47.032 77.462C45.841 78.897 48.7129 88.182 51.9879 93.48C53.6839 96.224 59.609 102.084 64.75 106.102C65.438 106.639 66 107.736 66 108.539C66 110.969 63.623 110.177 61.527 107.05C60.442 105.43 58.635 103.874 57.512 103.592C51.548 102.096 44.143 87.472 41.942 72.843C41.286 68.484 39.408 62.455 37.322 58.008C34.246 51.452 33.8879 49.9 34.4609 45.585C35.4359 38.234 36.393 37 41.119 37C43.345 37 45.017 36.662 44.833 36.25C44.167 34.751 35.678 20.434 33.994 17.969ZM31.5599 5.65201C32.8319 11.241 47.624 35.413 51.08 37.549C51.698 37.931 52.914 39.877 53.783 41.872C54.938 44.526 55.4679 45.024 55.7589 43.726C55.9769 42.75 55.333 40.637 54.328 39.03C42.107 19.497 39.187 14.656 36.562 9.57098C33.169 2.99998 30.4779 0.892008 31.5599 5.65201ZM56.15 56.5C54.275 56.5 49.3 49.182 48.501 45.25C47.627 40.946 49.2609 41.069 52.0079 45.513C53.2019 47.445 55.0659 49.5 56.1489 50.08C58.4069 51.288 58.408 56.5 56.15 56.5Z" fill="black"/>
</svg>
