<svg width="80" height="81" viewBox="0 0 80 81" fill="none" xmlns="http://www.w3.org/2000/svg">
<path d="M36.7736 58.609C36.3496 58.184 36.8685 57.203 37.9275 56.429C40.4245 54.603 41.3745 55.553 39.2126 57.714C38.2966 58.631 37.1986 59.033 36.7736 58.609Z" fill="black"/>
<path fill-rule="evenodd" clip-rule="evenodd" d="M18.8266 2.25C15.5076 5.945 7.49856 21.608 7.49856 24.404C7.49856 26.198 6.95756 27.01 5.74856 27.032C3.36256 27.075 0.929501 29.068 0.110501 31.649C-0.750499 34.358 3.58752 44.425 7.30252 48.342C8.78552 49.904 11.6735 52.045 13.7205 53.098C15.7675 54.151 18.9175 56.271 20.7205 57.81C22.5235 59.349 26.4736 61.8 29.4986 63.256C35.1886 65.996 54.3745 73 56.1885 73C56.7545 73 59.2725 74.81 61.7855 77.021C64.6955 79.583 66.6026 80.64 67.0396 79.934C67.4156 79.325 67.2235 78.325 66.6115 77.713C65.0585 76.16 65.2246 75 66.9986 75C70.1036 75 68.3356 73.037 64.2486 71.948C59.9896 70.813 56.1726 69.174 51.4986 66.474C50.1236 65.679 47.6486 65.017 45.9986 65.001C40.4896 64.95 28.0995 60.418 26.8495 57.998C25.4655 55.318 21.0385 52.278 17.3355 51.464C15.8495 51.138 12.7925 48.873 10.5425 46.432C6.47251 42.016 6.45949 41.977 8.04849 38.904C9.80949 35.498 9.50158 34.087 7.51858 36.476C5.69658 38.671 4.89952 38.381 3.50552 35.018C1.87752 31.087 2.80053 29 6.16653 29C8.14653 29 10.1746 30.361 13.5496 33.956C20.4486 41.304 32.2846 45.372 35.4986 41.5C36.5516 40.232 36.3385 40 34.1205 40C29.5685 40 31.2956 35.645 38.3476 29.345C40.9056 27.06 42.6635 24.85 42.2545 24.435C41.8455 24.019 40.6085 24.496 39.5045 25.494C37.5685 27.247 37.4286 27.247 35.4986 25.5C34.3986 24.505 33.4986 22.888 33.4986 21.908C33.4986 20.643 32.5855 20.036 30.3495 19.813C27.2765 19.508 26.3486 18.591 24.9676 14.5C24.4216 12.884 24.0315 13.363 22.9345 17C22.1635 19.553 20.3785 22.461 18.8075 23.721C16.6175 25.477 16.2966 26.198 17.2696 27.171C18.4826 28.384 19.0186 33 17.9456 33C17.6406 33 15.8406 31.762 13.9456 30.25C11.7516 28.5 10.4986 26.634 10.4986 25.12C10.4986 21.247 20.5075 4 22.7545 4C24.9365 4 40.0366 9.19198 44.3686 11.433C45.9636 12.258 48.5265 15.079 50.0635 17.702C51.6015 20.325 54.7675 24.511 57.1005 27.006C59.4335 29.5 63.3305 35.356 65.7615 40.02C69.1125 46.45 71.2006 49.191 74.3996 51.357C76.7206 52.928 78.8825 53.949 79.2045 53.627C79.5275 53.305 77.9716 51.067 75.7476 48.654C73.3716 46.077 70.7775 41.728 69.4595 38.113C68.0825 34.336 65.9855 30.879 64.0315 29.163C62.2805 27.626 59.1176 23.565 57.0026 20.138C52.7516 13.251 47.3995 8 44.6295 8C43.6395 8 38.4056 6.2 32.9986 4C27.5916 1.8 22.6455 0 22.0075 0C21.3695 0 19.9376 1.012 18.8266 2.25ZM22.9046 25.739C22.6286 25.464 23.1125 24.529 23.9795 23.662C25.5345 22.107 28.4986 22.387 28.4986 24.088C28.4986 25.081 23.6706 26.506 22.9046 25.739ZM24.1375 34.512C23.4505 31.631 23.6335 30.509 25.0425 28.951C27.1985 26.569 27.3795 26.569 30.4805 28.952L32.9626 30.859L29.8705 34.679C28.1695 36.781 26.3776 38.415 25.8886 38.311C25.3986 38.207 24.6115 36.497 24.1375 34.512Z" fill="black"/>
</svg>
