<svg width="103" height="116" viewBox="0 0 103 116" fill="none" xmlns="http://www.w3.org/2000/svg">
<path fill-rule="evenodd" clip-rule="evenodd" d="M79.973 1.645C78.613 2.549 75.025 5.67 72 8.58C68.033 12.396 64.619 14.573 59.752 16.39C56.041 17.775 49.516 20.707 45.252 22.905C40.989 25.103 33.675 28.654 29 30.797C24.325 32.939 17.789 36.449 14.477 38.596C11.164 40.743 6.55099 43.356 4.22699 44.402C0.73199 45.974 0 46.784 0 49.074C0 51.375 0.617996 52.049 3.646 53.048C8.468 54.64 18.346 53.703 21.643 51.342C26.436 47.909 31.495 45.033 32.769 45.016C34.244 44.997 33.712 59.862 31.958 67.688C29.482 78.736 31.636 110.446 35.15 114.681C36.824 116.698 40.42 116.254 42.696 113.75C44.473 111.794 44.822 109.672 45.371 97.5C45.986 83.88 48.543 67 49.992 67C50.387 67 51.489 70.601 52.44 75.002C54.733 85.614 58.515 88.529 64.194 84.062C65.549 82.996 67.891 81.814 69.399 81.436C70.907 81.058 72.671 79.855 73.32 78.763C73.969 77.671 76.432 75.936 78.794 74.906C83.729 72.754 85.607 69.306 87.158 59.546C87.687 56.221 88.838 49.9 89.715 45.5C91.259 37.763 91.509 37.311 97.319 31.747C100.624 28.583 103.046 25.713 102.702 25.368C102.358 25.024 99.921 26.122 97.288 27.807C94.655 29.493 91.6 30.789 90.5 30.686C88.948 30.542 88.446 31.172 88.26 33.5C88.006 36.676 86.669 45.729 84.864 56.496C84.264 60.073 83.374 63 82.887 63C81.664 63 81.764 57.264 83 56.5C84.651 55.48 84.13 54 82.12 54C81.087 54 78.582 51.975 76.554 49.5C72.485 44.535 71.544 44.197 68.773 46.706C67.195 48.133 66.558 48.205 64.861 47.145C63.192 46.103 62.425 46.147 60.522 47.394C59.013 48.383 56.993 48.711 54.703 48.339C51.685 47.849 50.952 48.144 49.439 50.453C48.309 52.178 47.743 54.782 47.855 57.746C47.951 60.281 47.362 64.188 46.545 66.428C44.714 71.45 42 91.251 42 99.585C42 108.498 41.124 112 38.894 112C36.911 112 36.869 111.873 35.007 100.342C33.442 90.65 33.441 72.272 35.006 68.5C35.69 66.85 36.373 61.833 36.523 57.351C36.954 44.505 37.417 43.274 42.114 42.481C47.162 41.628 46.704 39.602 41.372 39.202C36.678 38.85 25.029 43.669 20.785 47.717C17.835 50.531 10.459 52.217 6.14301 51.063C2.48001 50.083 2.419 48.287 6.021 47.495C7.741 47.118 10.578 45.585 12.324 44.09C14.071 42.596 16.85 40.45 18.5 39.322C23.416 35.961 38.898 28 40.517 28C41.343 28 45.729 25.994 50.264 23.542C54.798 21.09 60.78 18.597 63.556 18.002C70.527 16.507 75.048 13.62 74.742 10.86C74.569 9.304 75.788 7.692 79 5.227C83.474 1.793 84.951 0 83.306 0C82.832 0 81.332 0.74 79.973 1.645ZM66.5 39C65.4 39.473 61.373 39.891 57.55 39.93C52.261 39.983 50.878 40.278 51.765 41.165C54.749 44.149 70.65 42.626 71.757 39.25C72.222 37.832 69.518 37.703 66.5 39ZM69.567 49.891C69.264 50.382 69.949 52.89 71.088 55.466C72.228 58.042 73.412 62.588 73.719 65.568C74.309 71.285 75.733 73.423 78.296 72.44C80.702 71.517 80.994 69.587 79.694 63.212C77.93 54.566 71.724 46.402 69.567 49.891ZM59.473 51.044C59.118 51.618 59.332 52.695 59.948 53.438C61.133 54.865 65 67.917 65 70.487C65 73.601 63.039 71.846 61.94 67.75C59.947 60.317 57.899 55.097 56.112 52.89C54.588 51.008 54.119 50.909 52.254 52.074C49.959 53.507 50.046 56.959 52.505 62C53.176 63.375 54.002 66.3 54.341 68.5C56.222 80.693 57.519 83.506 60.697 82.286C61.454 81.995 62.737 80.171 63.547 78.233C64.934 74.915 65.126 74.804 66.83 76.346C68.38 77.749 68.907 77.788 70.504 76.62C73.511 74.422 72.616 66.374 68.369 57.427C65.452 51.281 64.436 50 62.481 50C61.181 50 59.828 50.47 59.473 51.044Z" fill="black"/>
</svg>
