<svg width="84" height="123" viewBox="0 0 84 123" fill="none" xmlns="http://www.w3.org/2000/svg">
<path fill-rule="evenodd" clip-rule="evenodd" d="M19.8679 3.65045C17.8109 5.87445 15.5029 7.69345 14.7399 7.69345C12.4329 7.69345 9.20789 12.7264 9.20789 16.3284C9.20789 18.5784 8.73491 19.6934 7.77891 19.6934C2.93791 19.6934 0.949888 27.1364 0.435888 47.1934C-0.501112 83.7215 -0.10311 91.0074 3.37589 101.069C4.49289 104.301 5.1999 108.126 4.9459 109.569C4.2799 113.352 5.5359 122.8 6.6619 122.472C7.1869 122.318 7.6369 119.496 7.6619 116.2C7.6919 112.331 8.12088 110.204 8.87488 110.2C11.0489 110.187 11.5359 108.713 9.94788 106.949C5.55188 102.068 2.6899 87.0064 2.9629 70.1934C3.5069 36.6784 3.90888 29.0254 5.26688 26.3044C8.40488 20.0144 9.05088 22.4394 10.7629 46.9434C11.1759 52.8554 11.8229 57.6934 12.1999 57.6934C12.5779 57.6934 13.3969 56.5734 14.0209 55.2034C14.8439 53.3984 14.8719 50.7194 14.1249 45.4534C12.3049 32.6404 11.8599 18.2784 13.1609 14.3364C14.3149 10.8394 16.4179 9.60645 17.6989 11.6784C18.3769 12.7754 20.4289 36.1384 20.5989 44.6934C20.6939 49.4904 20.9639 50.1934 22.7079 50.1934C24.4809 50.1934 24.6739 49.6254 24.4109 45.1934C24.2469 42.4434 23.7089 37.9434 23.2139 35.1934C22.7199 32.4434 22.1779 24.3434 22.0109 17.1934L21.7079 4.19345L24.3409 3.88844C26.5299 3.63444 27.1759 4.14044 28.1699 6.88844C28.8269 8.70644 29.5549 13.5314 29.7869 17.6104C30.0189 21.6904 30.4339 25.2524 30.7089 25.5274C32.0149 26.8334 32.5759 23.9884 32.3579 17.1654C32.1409 10.3674 32.2929 9.69345 34.0499 9.69345C38.1269 9.69345 41.8169 23.0344 42.7619 41.1934C43.0769 47.2434 43.9809 54.4124 44.7709 57.1254C46.6299 63.5044 46.5889 63.9674 44.2739 62.7285C39.9179 60.3974 40.1589 62.1714 44.8539 67.0054C48.3499 70.6044 48.4219 70.8184 46.6039 72.1944C44.8169 73.5474 44.8749 73.6314 47.6289 73.6614C52.2109 73.7114 63.2009 67.8944 65.0889 64.4204C69.3469 56.5864 75.2469 52.5394 78.7139 55.0744C80.2229 56.1774 80.0389 56.7064 76.7959 60.5884C74.8219 62.9504 73.2079 65.5254 73.2079 66.3104C73.2079 67.0954 71.5039 69.6404 69.4219 71.9654C67.3399 74.2914 63.6279 78.8094 61.1719 82.0074C58.7169 85.2054 54.6829 90.4614 52.2079 93.6874C47.0819 100.367 40.8109 105.693 38.0699 105.693C37.0459 105.693 36.2079 106.143 36.2079 106.693C36.2079 107.243 37.1079 107.693 38.2079 107.693C40.0519 107.693 40.7129 108.791 40.2679 111.118C40.1709 111.627 40.3819 113.764 40.7379 115.868C41.7919 122.108 43.8369 120.565 44.5439 112.997C45.1239 106.792 45.4929 105.967 49.5819 101.747C55.4849 95.6554 72.9309 73.1134 75.2669 68.5594C76.2919 66.5604 78.4979 63.5574 80.1689 61.8854C84.5609 57.4934 83.9169 51.6934 79.0369 51.6934C75.1449 51.6934 66.2469 56.5804 64.2959 59.7894C62.1059 63.3904 53.3969 69.3094 52.1839 68.0214C50.3679 66.0944 48.1129 56.8564 47.1429 47.3724C44.4009 20.5544 42.7669 13.1614 38.6789 9.07344C37.3699 7.76444 35.2659 6.67645 34.0029 6.65445C32.5289 6.63045 30.9869 5.46745 29.6919 3.40445C26.7979 -1.20555 24.3029 -1.14355 19.8679 3.65045ZM30.7799 29.7764C30.5079 30.5554 30.6059 35.4634 30.9969 40.6824C31.5889 48.5864 31.9999 50.2264 33.4579 50.5054C34.9069 50.7824 35.2069 50.0965 35.2019 46.5164C35.1889 36.9234 32.2139 25.6604 30.7799 29.7764ZM17.2549 67.6544C12.1179 69.3084 9.30388 71.6934 12.4909 71.6934C14.7229 71.6934 24.2079 67.5374 24.2079 66.5604C24.2079 65.4684 23.8849 65.5194 17.2549 67.6544ZM29.9029 76.4904C27.2849 79.2224 25.1249 85.6964 26.8329 85.6904C27.6909 85.6874 33.4149 74.5674 32.8499 74.0024C32.6919 73.8434 31.3649 74.9634 29.9029 76.4904ZM22.3929 105.443C22.6009 106.541 23.8349 107.319 25.7019 107.532C28.6629 107.869 28.6689 107.86 26.7889 105.782C24.4779 103.229 21.9359 103.033 22.3929 105.443Z" fill="black"/>
</svg>
